<svg width="166" height="29" viewBox="0 0 166 29" fill="none" xmlns="http://www.w3.org/2000/svg">
<mask id="mask0_5_10653" style="mask-type:alpha" maskUnits="userSpaceOnUse" x="0" y="0" width="166" height="29">
<g clip-path="url(#clip0_5_10653)">
<path d="M41.0338 22.045C40.8598 22.045 40.6944 22.0267 40.5373 21.9862C40.3762 21.9457 40.236 21.8793 40.1174 21.7873C39.9984 21.6952 39.9136 21.5737 39.8625 21.4227H40.1257C40.1809 21.5296 40.253 21.618 40.3506 21.6806C40.4481 21.7432 40.5543 21.7911 40.6773 21.8168C40.7961 21.8462 40.9149 21.8609 41.0336 21.8609C41.1653 21.8609 41.2924 21.8426 41.4156 21.8057C41.5387 21.7726 41.6362 21.7173 41.7125 21.6437C41.789 21.5699 41.8271 21.4743 41.8271 21.3529C41.8271 21.2571 41.8061 21.1799 41.7636 21.1209C41.7169 21.062 41.6575 21.0141 41.5854 20.9772C41.5091 20.9441 41.4199 20.9148 41.3222 20.8889C41.2501 20.8705 41.1737 20.8522 41.0974 20.8338C41.0211 20.8189 40.9488 20.8043 40.8769 20.7858C40.8046 20.7674 40.7325 20.749 40.6688 20.7305C40.5798 20.7086 40.4949 20.6828 40.4101 20.6495C40.321 20.6164 40.2445 20.5759 40.1809 20.528C40.1132 20.4802 40.0578 20.4175 40.0198 20.3477C39.9773 20.2777 39.9563 20.1893 39.9563 20.0862C39.9563 19.9794 39.9732 19.8875 40.0113 19.8101C40.0496 19.7327 40.1005 19.6664 40.1684 19.6112C40.2363 19.556 40.3126 19.5117 40.4016 19.4786C40.4908 19.4455 40.5841 19.4235 40.686 19.405C40.7835 19.3902 40.8852 19.3828 40.9915 19.3828C41.1526 19.3828 41.3055 19.4013 41.4455 19.4418C41.5856 19.4823 41.7044 19.5448 41.8019 19.6333C41.8994 19.7217 41.9632 19.8394 41.9886 19.9904H41.7425C41.7127 19.8837 41.6619 19.8025 41.5856 19.7401C41.5049 19.6775 41.4158 19.6333 41.3097 19.6076C41.2036 19.5817 41.0976 19.5669 40.9871 19.5669C40.8981 19.5669 40.809 19.5743 40.72 19.5891C40.6308 19.6076 40.546 19.6333 40.4695 19.6701C40.3932 19.707 40.3295 19.7548 40.2828 19.8175C40.2361 19.8799 40.2107 19.9609 40.2107 20.0567C40.2107 20.1524 40.2363 20.2298 40.2828 20.2924C40.3295 20.3549 40.3889 20.4029 40.4653 20.4397C40.5374 20.4765 40.6223 20.5096 40.7158 20.5354C40.8388 20.5687 40.9702 20.598 41.1017 20.6238C41.2332 20.6495 41.3607 20.6826 41.4793 20.7157C41.5643 20.7379 41.645 20.7674 41.7169 20.8005C41.7892 20.8372 41.8527 20.8815 41.9079 20.9294C41.9632 20.9772 42.0055 21.0323 42.0351 21.0951C42.0649 21.1576 42.0819 21.2312 42.0819 21.3085C42.0819 21.4448 42.0523 21.5589 41.9969 21.6511C41.9375 21.7432 41.8569 21.8204 41.7594 21.8793C41.6619 21.9381 41.5472 21.9788 41.4243 22.0046C41.3012 22.0339 41.1697 22.045 41.0338 22.045ZM42.731 22.0157V19.4123H42.973V22.0157H42.731ZM43.7452 22.0157V19.4123H44.0761L45.8838 21.7506V19.4123H46.1255V22.0157H45.8073L43.9871 19.6775V22.0157H43.7452ZM48.1028 22.045C47.7973 22.045 47.5427 21.9862 47.3435 21.8719C47.1397 21.7578 46.9869 21.6032 46.8892 21.4045C46.7875 21.2092 46.7367 20.9882 46.7323 20.7416C46.7281 20.5501 46.7579 20.3734 46.8129 20.2076C46.8681 20.0457 46.9488 19.902 47.0634 19.7768C47.178 19.6553 47.318 19.5559 47.4918 19.486C47.6616 19.4161 47.8611 19.3828 48.0903 19.3828C48.2768 19.3828 48.4466 19.4049 48.6035 19.4492C48.7564 19.4969 48.8879 19.5633 49.0024 19.6553C49.1128 19.7474 49.1978 19.8615 49.257 20.0052H48.9813C48.9346 19.9094 48.8667 19.8284 48.7777 19.762C48.6885 19.6994 48.5823 19.6479 48.4635 19.6148C48.3447 19.5817 48.2218 19.5669 48.0944 19.5669C47.8992 19.5669 47.7296 19.5964 47.5895 19.6589C47.4495 19.7215 47.3349 19.8061 47.2459 19.913C47.1567 20.0199 47.0888 20.145 47.0507 20.2812C47.0082 20.4211 46.9869 20.5685 46.9869 20.7269C46.9869 20.9331 47.0253 21.1208 47.1059 21.2938C47.1822 21.4669 47.3053 21.6032 47.4708 21.7063C47.6362 21.8094 47.8442 21.8609 48.1028 21.8609C48.3193 21.8609 48.506 21.824 48.6589 21.7468C48.8073 21.6732 48.9261 21.5663 49.0065 21.43C49.0874 21.2938 49.1297 21.1318 49.134 20.9477H48.1028V20.76H49.3589V20.9293C49.3589 21.1502 49.3078 21.3454 49.206 21.5112C49.1042 21.6804 48.96 21.813 48.7733 21.905C48.5823 21.9971 48.3618 22.045 48.1028 22.045ZM49.9657 22.0157V19.4123H50.2076V21.8242H51.9261V22.0155H49.9657V22.0157ZM52.3841 22.0157V19.4123H54.3445V19.6038H52.626V20.6274H54.1705V20.8188H52.626V21.824H54.3445V22.0155H52.3841V22.0157ZM56.0968 22.0157V19.4123H56.3387V22.0157H56.0968ZM57.1109 22.0157V19.4123H57.4418L59.2495 21.7506V19.4123H59.4914V22.0157H59.1732L57.353 19.6775V22.0157H57.1109ZM60.9594 22.0157V19.6038H59.954V19.4124H62.207V19.6038H61.2014V22.0157H60.9594ZM62.6696 22.0157V19.4123H64.6298V19.6038H62.9113V20.6274H64.4558V20.8188H62.9113V21.824H64.6298V22.0155H62.6696V22.0157ZM66.4416 22.045C66.1361 22.045 65.8815 21.9862 65.6821 21.8719C65.4785 21.7578 65.3258 21.6032 65.228 21.4045C65.1263 21.2092 65.0753 20.9882 65.0711 20.7416C65.0669 20.5501 65.0967 20.3734 65.1518 20.2076C65.207 20.0457 65.2874 19.902 65.4022 19.7768C65.5166 19.6553 65.6567 19.5559 65.8307 19.486C66.0005 19.4161 66.1999 19.3828 66.4289 19.3828C66.6156 19.3828 66.7854 19.4049 66.9423 19.4492C67.0953 19.4969 67.2268 19.5633 67.3412 19.6553C67.4516 19.7474 67.5364 19.8615 67.5958 20.0052H67.3201C67.2734 19.9094 67.2053 19.8284 67.1163 19.762C67.0273 19.6994 66.9211 19.6479 66.8023 19.6148C66.6835 19.5817 66.5604 19.5669 66.4333 19.5669C66.238 19.5669 66.0684 19.5964 65.9284 19.6589C65.7882 19.7215 65.6737 19.8061 65.5847 19.913C65.4956 20.0199 65.4276 20.145 65.3893 20.2812C65.347 20.4211 65.3258 20.5685 65.3258 20.7269C65.3258 20.9331 65.3641 21.1208 65.4447 21.2938C65.521 21.4669 65.6441 21.6032 65.8094 21.7063C65.9749 21.8094 66.183 21.8609 66.4416 21.8609C66.6581 21.8609 66.8448 21.824 66.9976 21.7468C67.1461 21.6732 67.2649 21.5663 67.3454 21.43C67.426 21.2938 67.4685 21.1318 67.4727 20.9477H66.4416V20.76H67.6977V20.9293C67.6977 21.1502 67.6467 21.3454 67.5448 21.5112C67.4431 21.6804 67.2989 21.813 67.1122 21.905C66.9211 21.9971 66.7004 22.045 66.4416 22.045ZM68.3043 22.0157V19.4123H69.4075C69.5646 19.4123 69.7088 19.4271 69.8404 19.4528C69.9676 19.4823 70.078 19.5264 70.1714 19.5891C70.2603 19.6517 70.3325 19.7327 70.3835 19.8322C70.4302 19.9352 70.4556 20.0604 70.4556 20.2041C70.4556 20.3403 70.426 20.4582 70.3708 20.5575C70.3156 20.6571 70.2307 20.7417 70.1247 20.8079C70.0186 20.8741 69.8913 20.922 69.7427 20.9515L70.3962 22.0157H70.1289L69.4925 20.9884H68.5462V22.0157H68.3043ZM68.5462 20.8005H69.2889C69.4076 20.8005 69.5223 20.7931 69.6325 20.7748C69.7429 20.76 69.8404 20.7305 69.9294 20.6864C70.0144 20.6421 70.0824 20.5795 70.1332 20.4987C70.1799 20.4213 70.2053 20.3182 70.2053 20.1929C70.2095 20.0419 70.1757 19.9204 70.1034 19.8358C70.0313 19.7511 69.9294 19.6886 69.8065 19.6555C69.6792 19.6222 69.5308 19.6038 69.3651 19.6038H68.5462V20.8005ZM70.7569 22.0157L71.9153 19.4123H72.2249L73.3918 22.0157H73.1203L72.8573 21.4301H71.283L71.0242 22.0157H70.7569ZM71.3637 21.2424H72.7765L72.0722 19.6296L71.3637 21.2424Z" fill="#FE830C"/>
<path d="M74.3193 22.0153V19.6036H73.3138V19.4121H75.5668V19.6036H74.5612V22.0153H74.3193Z" fill="#FE830C"/>
<path d="M77.2133 22.0451C76.9036 22.0451 76.6448 21.9863 76.4369 21.8722C76.2289 21.7581 76.072 21.5997 75.9659 21.3972C75.8599 21.1985 75.8088 20.9701 75.8088 20.7159C75.8088 20.462 75.8641 20.2336 75.9701 20.0311C76.0762 19.8285 76.2331 19.6703 76.4411 19.5562C76.649 19.4419 76.9036 19.383 77.2133 19.383C77.5231 19.383 77.7819 19.4419 77.9897 19.5562C78.1979 19.6739 78.3504 19.8323 78.4567 20.0311C78.5626 20.2336 78.6136 20.462 78.6136 20.7159C78.6136 20.9701 78.5626 21.1947 78.4567 21.3972C78.3504 21.5997 78.1935 21.758 77.9855 21.8722C77.7776 21.9863 77.5231 22.0451 77.2133 22.0451ZM77.2133 21.8611C77.4723 21.8611 77.6886 21.8095 77.8582 21.7064C78.028 21.6034 78.1554 21.4634 78.236 21.2903C78.3165 21.1173 78.3591 20.9258 78.3591 20.7159C78.3591 20.5576 78.3379 20.4104 78.291 20.2705C78.2444 20.1343 78.1724 20.0126 78.0789 19.9059C77.9855 19.7992 77.8668 19.718 77.7226 19.6556C77.5782 19.5965 77.4085 19.5672 77.2133 19.5672C76.9545 19.5672 76.7382 19.6188 76.5684 19.7256C76.3944 19.8325 76.2671 19.9686 76.1864 20.1417C76.1016 20.3148 76.0593 20.5061 76.0593 20.716C76.0593 20.9223 76.1016 21.1137 76.1864 21.2867C76.2714 21.4598 76.3987 21.5997 76.5725 21.7028C76.7424 21.8097 76.9545 21.8612 77.2133 21.8612V21.8611ZM79.2204 22.0157V19.4124H80.3235C80.4804 19.4124 80.6248 19.4271 80.7563 19.4529C80.8836 19.4824 80.9939 19.5266 81.0872 19.5893C81.1764 19.6517 81.2485 19.7327 81.2996 19.8323C81.346 19.9354 81.3717 20.0605 81.3717 20.2041C81.3717 20.3404 81.3421 20.4582 81.2867 20.5576C81.2316 20.6571 81.1466 20.7419 81.0407 20.8081C80.9345 20.8743 80.8072 20.9222 80.6588 20.9516L81.3123 22.0158H81.0449L80.4083 20.9885H79.4623V22.0158H79.2204V22.0157ZM79.4623 20.8005H80.2048C80.3237 20.8005 80.4381 20.7933 80.5486 20.7748C80.6588 20.7602 80.7565 20.7305 80.8455 20.6864C80.9303 20.6423 80.9984 20.5797 81.0493 20.4987C81.096 20.4213 81.1214 20.3182 81.1214 20.1931C81.1254 20.0421 81.0916 19.9206 81.0195 19.8359C80.9474 19.7511 80.8455 19.6886 80.7225 19.6555C80.5952 19.6224 80.4467 19.6039 80.2812 19.6039H79.4623V20.8005ZM83.1452 22.0157V19.4124H85.1056V19.6039H83.3871V20.7195H84.8678V20.911H83.3871V22.0157H83.1452ZM86.9045 22.0451C86.5948 22.0451 86.336 21.9864 86.1281 21.8721C85.9201 21.758 85.7632 21.5996 85.6571 21.3971C85.5511 21.1983 85.5 20.9699 85.5 20.7159C85.5 20.4618 85.5553 20.2336 85.6613 20.0311C85.7676 19.8285 85.9245 19.6703 86.1324 19.556C86.3402 19.4419 86.5948 19.383 86.9045 19.383C87.2143 19.383 87.4732 19.4419 87.6811 19.556C87.8891 19.6739 88.0418 19.8322 88.1479 20.0311C88.2539 20.2336 88.3048 20.462 88.3048 20.7159C88.3048 20.9699 88.2539 21.1947 88.1479 21.3971C88.0418 21.5996 87.8849 21.758 87.6769 21.8721C87.469 21.9864 87.2143 22.0451 86.9045 22.0451ZM86.9045 21.8611C87.1635 21.8611 87.3798 21.8095 87.5496 21.7064C87.7192 21.6034 87.8466 21.4634 87.9272 21.2902C88.0078 21.1173 88.0503 20.9258 88.0503 20.7159C88.0503 20.5575 88.0291 20.4103 87.9824 20.2705C87.9357 20.1341 87.8636 20.0126 87.7701 19.9059C87.6768 19.7991 87.558 19.718 87.4138 19.6555C87.2694 19.5965 87.0997 19.5672 86.9045 19.5672C86.6459 19.5672 86.4294 19.6186 86.2596 19.7255C86.0856 19.8323 85.9583 19.9685 85.8776 20.1415C85.793 20.3146 85.7505 20.5061 85.7505 20.7159C85.7505 20.9222 85.793 21.1137 85.8776 21.2867C85.9626 21.4598 86.0899 21.5997 86.2638 21.7028C86.4336 21.8097 86.6457 21.8612 86.9045 21.8612V21.8611ZM88.9116 22.0157V19.4124H90.0147C90.1718 19.4124 90.316 19.4271 90.4477 19.4528C90.5748 19.4823 90.6853 19.5266 90.7786 19.5891C90.8676 19.6517 90.9397 19.7327 90.9908 19.8322C91.0374 19.9352 91.0629 20.0605 91.0629 20.2041C91.0629 20.3403 91.0333 20.4582 90.9779 20.5576C90.9228 20.6571 90.8378 20.7417 90.7319 20.8079C90.6259 20.8743 90.4986 20.9222 90.35 20.9516L91.0035 22.0157H90.7361L90.0997 20.9884H89.1535V22.0157H88.9116ZM89.1535 20.8005H89.8961C90.0149 20.8005 90.1293 20.7933 90.2398 20.7748C90.3502 20.76 90.4477 20.7305 90.5367 20.6864C90.6217 20.6423 90.6896 20.5795 90.7405 20.4987C90.7872 20.4213 90.8126 20.3182 90.8126 20.1929C90.8168 20.0421 90.7828 19.9206 90.7107 19.8359C90.6386 19.7511 90.5367 19.6886 90.4138 19.6555C90.2864 19.6222 90.1381 19.6039 89.9724 19.6039H89.1537L89.1535 20.8005ZM93.5323 22.0157V19.6039H92.5267V19.4124H94.7799V19.6039H93.7743V22.0157H93.5323ZM95.2423 22.0157V19.4124H95.4842V20.6459H97.3087V19.4124H97.5507V22.0157H97.3087V20.8338H95.4842V22.0157H95.2423ZM98.3229 22.0157V19.4124H100.283V19.6038H98.5648V20.6274H100.109V20.8188H98.5648V21.8242H100.283V22.0155L98.3229 22.0157ZM103.241 22.0451C102.931 22.0451 102.672 21.9862 102.473 21.8721C102.269 21.758 102.116 21.5996 102.019 21.3971C101.921 21.1983 101.87 20.9699 101.87 20.7159C101.87 20.4618 101.921 20.2372 102.023 20.0347C102.121 19.8359 102.273 19.6775 102.481 19.5596C102.685 19.4418 102.944 19.3828 103.253 19.3828C103.436 19.3828 103.601 19.405 103.754 19.4528C103.903 19.5007 104.034 19.5669 104.14 19.6591C104.246 19.751 104.323 19.8653 104.374 20.0052H104.123C104.055 19.8616 103.945 19.751 103.792 19.6775C103.635 19.6038 103.457 19.5671 103.258 19.5671C102.995 19.5671 102.778 19.6186 102.613 19.7255C102.443 19.8322 102.32 19.9685 102.239 20.1415C102.159 20.3144 102.116 20.5023 102.116 20.7086C102.116 20.9148 102.154 21.1063 102.235 21.2793C102.316 21.456 102.439 21.596 102.608 21.7028C102.774 21.8095 102.99 21.8611 103.249 21.8611C103.381 21.8611 103.504 21.8464 103.627 21.8133C103.75 21.78 103.856 21.7321 103.949 21.6659C104.042 21.5996 104.11 21.5186 104.153 21.4229H104.429C104.374 21.5591 104.284 21.6733 104.17 21.7652C104.051 21.8574 103.911 21.9272 103.754 21.9752C103.597 22.0231 103.423 22.0451 103.241 22.0451ZM105.01 22.0157V19.4124H106.113C106.27 19.4124 106.414 19.4271 106.546 19.4528C106.673 19.4823 106.783 19.5266 106.877 19.5891C106.966 19.6517 107.038 19.7327 107.089 19.8322C107.136 19.9352 107.161 20.0605 107.161 20.2041C107.161 20.3403 107.131 20.4582 107.076 20.5576C107.021 20.6571 106.936 20.7417 106.83 20.8079C106.724 20.8743 106.597 20.9222 106.448 20.9516L107.102 22.0157H106.834L106.198 20.9884H105.252V22.0157H105.01ZM105.252 20.8005H105.994C106.113 20.8005 106.228 20.7933 106.338 20.7748C106.448 20.76 106.546 20.7305 106.635 20.6864C106.72 20.6423 106.788 20.5795 106.839 20.4987C106.885 20.4213 106.911 20.3182 106.911 20.1929C106.915 20.0421 106.881 19.9206 106.809 19.8359C106.737 19.7511 106.635 19.6886 106.512 19.6555C106.385 19.6222 106.236 19.6039 106.071 19.6039H105.252V20.8005ZM107.789 22.0157V19.4124H109.749V19.6038H108.031V20.6274H109.575V20.8188H108.031V21.8242H109.749V22.0155L107.789 22.0157ZM110.03 22.0157L111.188 19.4124H111.498L112.664 22.0157H112.393L112.13 21.4301H110.556L110.297 22.0157H110.03ZM110.636 21.2424H112.049L111.345 19.6296L110.636 21.2424Z" fill="#FE830C"/>
<path d="M113.592 22.0155V19.6038H112.587V19.4123H114.84V19.6038H113.834V22.0155H113.592ZM115.302 22.0155V19.4123H115.544V22.0155H115.302ZM117.555 22.045C117.246 22.045 116.987 21.986 116.779 21.8719C116.571 21.7578 116.414 21.5994 116.308 21.3969C116.202 21.1981 116.151 20.9698 116.151 20.7157C116.151 20.4616 116.206 20.2334 116.312 20.0309C116.418 19.8284 116.575 19.6701 116.783 19.5559C116.991 19.4418 117.246 19.3828 117.555 19.3828C117.865 19.3828 118.124 19.4418 118.332 19.5559C118.54 19.6738 118.693 19.832 118.799 20.0309C118.905 20.2334 118.956 20.4618 118.956 20.7157C118.956 20.9698 118.905 21.1944 118.799 21.3969C118.693 21.5994 118.536 21.7578 118.328 21.8719C118.12 21.986 117.865 22.045 117.555 22.045ZM117.555 21.8609C117.814 21.8609 118.031 21.8094 118.2 21.7063C118.37 21.6032 118.497 21.4632 118.578 21.29C118.659 21.1171 118.701 20.9256 118.701 20.7157C118.701 20.5573 118.68 20.4101 118.633 20.2703C118.586 20.134 118.514 20.0125 118.421 19.9058C118.328 19.7989 118.209 19.7179 118.065 19.6553C117.92 19.5964 117.751 19.5669 117.555 19.5669C117.297 19.5669 117.08 19.6184 116.91 19.7253C116.736 19.8322 116.609 19.9683 116.529 20.1414C116.444 20.3144 116.401 20.5059 116.401 20.7157C116.401 20.922 116.444 21.1135 116.529 21.2866C116.614 21.4596 116.741 21.5996 116.915 21.7027C117.084 21.8095 117.297 21.8611 117.555 21.8611V21.8609ZM119.562 22.0155V19.4123H119.893L121.701 21.7504V19.4123H121.943V22.0155H121.625L119.804 19.6774V22.0155H119.562ZM123.534 22.0155L124.692 19.4123H125.002L126.169 22.0155H125.898L125.634 21.43H124.06L123.801 22.0155H123.534ZM124.141 21.2423H125.554L124.849 19.6295L124.141 21.2423ZM126.615 22.0155V19.4123H126.945L128.753 21.7504V19.4123H128.995V22.0155H128.677L126.856 19.6774V22.0155H126.615ZM129.767 22.0155V19.4123H130.811C131.121 19.4123 131.38 19.4674 131.587 19.5743C131.795 19.6846 131.948 19.8358 132.054 20.0307C132.16 20.226 132.211 20.4542 132.211 20.7157C132.211 20.9734 132.16 21.1981 132.054 21.3933C131.948 21.5884 131.795 21.7394 131.587 21.8499C131.38 21.9603 131.121 22.0155 130.811 22.0155H129.767ZM130.009 21.824H130.777C131.044 21.824 131.265 21.7763 131.439 21.6842C131.613 21.592 131.74 21.4596 131.829 21.2938C131.918 21.1282 131.961 20.9331 131.961 20.7157C131.961 20.5021 131.918 20.3107 131.833 20.1414C131.749 19.9757 131.621 19.8432 131.452 19.7474C131.282 19.6517 131.066 19.6038 130.807 19.6038H130.009V21.824ZM135.012 22.045C134.838 22.045 134.672 22.0265 134.515 21.986C134.354 21.9455 134.214 21.8793 134.095 21.7873C133.976 21.6952 133.892 21.5737 133.84 21.4227H134.104C134.159 21.5296 134.231 21.6179 134.328 21.6804C134.426 21.743 134.532 21.7909 134.655 21.8166C134.774 21.8461 134.893 21.8609 135.012 21.8609C135.143 21.8609 135.27 21.8425 135.393 21.8057C135.516 21.7725 135.614 21.7173 135.69 21.6436C135.767 21.5699 135.805 21.4743 135.805 21.3528C135.805 21.2571 135.784 21.1797 135.741 21.1208C135.695 21.062 135.635 21.0139 135.563 20.9772C135.487 20.9441 135.398 20.9146 135.3 20.8888C135.228 20.8703 135.152 20.852 135.075 20.8336C134.999 20.8189 134.927 20.8041 134.855 20.7857C134.783 20.7674 134.71 20.749 134.647 20.7305C134.558 20.7085 134.473 20.6826 134.388 20.6495C134.299 20.6164 134.222 20.5758 134.159 20.528C134.091 20.4801 134.036 20.4175 133.998 20.3475C133.955 20.2776 133.934 20.1893 133.934 20.0861C133.934 19.9794 133.951 19.8873 133.989 19.8099C134.027 19.7327 134.078 19.6664 134.146 19.6112C134.214 19.556 134.291 19.5117 134.38 19.4786C134.469 19.4455 134.562 19.4235 134.664 19.4049C134.761 19.3902 134.863 19.3828 134.969 19.3828C135.131 19.3828 135.283 19.4013 135.423 19.4418C135.563 19.4823 135.682 19.5448 135.78 19.6331C135.877 19.7215 135.941 19.8392 135.967 19.9904H135.72C135.691 19.8835 135.64 19.8025 135.563 19.74C135.483 19.6775 135.394 19.6331 135.288 19.6074C135.182 19.5817 135.075 19.5669 134.965 19.5669C134.876 19.5669 134.787 19.5743 134.698 19.589C134.609 19.6074 134.524 19.6331 134.447 19.6701C134.371 19.7069 134.307 19.7548 134.261 19.8173C134.214 19.8799 134.189 19.9609 134.189 20.0566C134.189 20.1523 134.214 20.2296 134.261 20.2922C134.307 20.3549 134.367 20.4027 134.443 20.4396C134.515 20.4765 134.6 20.5096 134.694 20.5354C134.817 20.5685 134.948 20.598 135.08 20.6237C135.211 20.6495 135.338 20.6826 135.457 20.7157C135.542 20.7379 135.623 20.7672 135.695 20.8003C135.767 20.8372 135.831 20.8815 135.886 20.9293C135.941 20.9772 135.983 21.0323 136.013 21.0951C136.043 21.1575 136.06 21.2312 136.06 21.3085C136.06 21.4448 136.03 21.5589 135.975 21.651C135.915 21.743 135.835 21.8204 135.737 21.8793C135.64 21.9381 135.525 21.9788 135.402 22.0045C135.279 22.0339 135.147 22.045 135.012 22.045ZM137.85 22.045C137.579 22.045 137.358 21.9971 137.188 21.8978C137.014 21.7982 136.891 21.6658 136.811 21.4927C136.73 21.3233 136.688 21.1282 136.688 20.9072V19.4123H136.934V20.8962C136.934 21.0765 136.963 21.2385 137.027 21.3821C137.087 21.5294 137.184 21.6473 137.32 21.732C137.456 21.8166 137.634 21.8609 137.854 21.8609C138.084 21.8609 138.266 21.8166 138.398 21.7282C138.529 21.6436 138.627 21.5257 138.686 21.3785C138.741 21.2349 138.771 21.0729 138.771 20.896V19.4121H139.017V20.907C139.017 21.128 138.979 21.3233 138.898 21.4926C138.818 21.6656 138.695 21.7982 138.521 21.8976C138.347 21.9971 138.126 22.045 137.85 22.045ZM139.768 22.0155V19.4123H140.778C140.994 19.4123 141.181 19.4418 141.338 19.5007C141.491 19.5631 141.61 19.6553 141.69 19.7805C141.771 19.9058 141.813 20.064 141.813 20.2591C141.813 20.4505 141.767 20.6088 141.669 20.7341C141.571 20.8631 141.436 20.9587 141.27 21.0215C141.101 21.0839 140.909 21.1171 140.697 21.1171H140.01V22.0155H139.768ZM140.01 20.9293H140.685C140.948 20.9293 141.16 20.8741 141.321 20.7636C141.482 20.6569 141.563 20.4839 141.563 20.2445C141.563 20.0199 141.491 19.8542 141.351 19.7546C141.211 19.6553 141.011 19.6038 140.757 19.6038H140.01V20.9293ZM142.424 22.0155V19.4123H143.434C143.65 19.4123 143.837 19.4418 143.994 19.5007C144.147 19.5631 144.266 19.6553 144.346 19.7805C144.427 19.9058 144.469 20.064 144.469 20.2591C144.469 20.4505 144.423 20.6088 144.325 20.7341C144.227 20.8631 144.092 20.9587 143.926 21.0215C143.757 21.0839 143.566 21.1171 143.354 21.1171H142.666V22.0155H142.424ZM142.666 20.9293H143.341C143.604 20.9293 143.816 20.8741 143.977 20.7636C144.138 20.6569 144.219 20.4839 144.219 20.2445C144.219 20.0199 144.147 19.8542 144.007 19.7546C143.867 19.6553 143.668 19.6038 143.413 19.6038H142.666V20.9293ZM146.319 22.045C146.01 22.045 145.751 21.986 145.543 21.8719C145.335 21.7578 145.178 21.5994 145.072 21.3969C144.966 21.1981 144.915 20.9698 144.915 20.7157C144.915 20.4616 144.97 20.2334 145.076 20.0309C145.182 19.8284 145.339 19.6701 145.547 19.5559C145.755 19.4418 146.01 19.3828 146.319 19.3828C146.629 19.3828 146.888 19.4418 147.096 19.5559C147.304 19.6738 147.457 19.832 147.563 20.0309C147.669 20.2334 147.72 20.4618 147.72 20.7157C147.72 20.9698 147.669 21.1944 147.563 21.3969C147.457 21.5994 147.3 21.7578 147.092 21.8719C146.884 21.986 146.629 22.045 146.319 22.045ZM146.319 21.8609C146.578 21.8609 146.795 21.8094 146.964 21.7063C147.134 21.6032 147.261 21.4632 147.342 21.29C147.423 21.1171 147.465 20.9256 147.465 20.7157C147.465 20.5573 147.444 20.4101 147.397 20.2703C147.35 20.134 147.278 20.0125 147.185 19.9058C147.092 19.7989 146.973 19.7179 146.829 19.6553C146.684 19.5964 146.515 19.5669 146.319 19.5669C146.061 19.5669 145.844 19.6184 145.674 19.7253C145.5 19.8322 145.373 19.9683 145.292 20.1414C145.208 20.3144 145.165 20.5059 145.165 20.7157C145.165 20.922 145.208 21.1135 145.292 21.2866C145.377 21.4596 145.505 21.5996 145.679 21.7027C145.848 21.8095 146.061 21.8611 146.319 21.8611V21.8609ZM148.326 22.0155V19.4123H149.43C149.586 19.4123 149.731 19.4269 149.862 19.4526C149.99 19.4821 150.1 19.5264 150.193 19.589C150.282 19.6515 150.355 19.7325 150.406 19.832C150.452 19.9351 150.478 20.0604 150.478 20.204C150.478 20.3401 150.448 20.458 150.393 20.5575C150.337 20.6569 150.253 20.7416 150.147 20.8078C150.041 20.8741 149.913 20.922 149.765 20.9515L150.418 22.0155H150.151L149.515 20.9882H148.568V22.0155H148.326ZM148.568 20.8003H149.311C149.43 20.8003 149.544 20.7931 149.655 20.7747C149.765 20.7598 149.863 20.7304 149.952 20.6862C150.037 20.6421 150.104 20.5794 150.155 20.4985C150.202 20.4211 150.227 20.3181 150.227 20.1928C150.231 20.0419 150.198 19.9204 150.126 19.8358C150.053 19.751 149.952 19.6884 149.829 19.6553C149.701 19.6221 149.553 19.6038 149.387 19.6038H148.568V20.8003ZM151.802 22.0155V19.6038H150.796V19.4123H153.049V19.6038H152.043V22.0155H151.802Z" fill="#FE830C"/>
<path d="M41.2288 26.587C40.9191 26.587 40.6603 26.5282 40.4524 26.4139C40.2444 26.2998 40.0875 26.1416 39.9813 25.9389C39.8754 25.7401 39.8243 25.5119 39.8243 25.2577C39.8243 25.0038 39.8796 24.7754 39.9856 24.5729C40.0917 24.3704 40.2486 24.2121 40.4567 24.098C40.6645 23.9838 40.9191 23.9248 41.2288 23.9248C41.5386 23.9248 41.7975 23.9838 42.0054 24.098C42.2134 24.2158 42.3659 24.374 42.4722 24.5729C42.5781 24.7754 42.6291 25.0038 42.6291 25.2577C42.6291 25.5119 42.5781 25.7364 42.4722 25.9389C42.3659 26.1416 42.209 26.2998 42.001 26.4139C41.7933 26.5282 41.5386 26.587 41.2288 26.587ZM41.2288 26.4029C41.4878 26.4029 41.7041 26.3513 41.8737 26.2483C42.0435 26.1452 42.1709 26.0052 42.2515 25.8322C42.3321 25.659 42.3746 25.4675 42.3746 25.2577C42.3746 25.0993 42.3534 24.9521 42.3067 24.8123C42.2599 24.6761 42.1878 24.5545 42.0944 24.4478C42.001 24.3409 41.8823 24.2599 41.7381 24.1973C41.5937 24.1384 41.424 24.1091 41.2288 24.1091C40.97 24.1091 40.7537 24.1606 40.5839 24.2673C40.4099 24.3741 40.2826 24.5103 40.2019 24.6834C40.1171 24.8564 40.0748 25.0479 40.0748 25.2579C40.0748 25.464 40.1171 25.6555 40.2019 25.8286C40.2869 26.0016 40.4142 26.1416 40.5881 26.2446C40.7579 26.3515 40.97 26.4029 41.2288 26.4029ZM43.2359 26.5575V23.9543H45.1963V24.1456H43.4778V25.2613H44.9585V25.4528H43.4778V26.5575H43.2359ZM47.9456 26.587C47.7718 26.587 47.6062 26.5685 47.4493 26.528C47.288 26.4875 47.148 26.4213 47.0292 26.3291C46.9104 26.2371 46.8256 26.1157 46.7745 25.9647H47.0377C47.0927 26.0716 47.165 26.1599 47.2626 26.2224C47.3601 26.285 47.4662 26.3329 47.5893 26.3586C47.7081 26.3881 47.8268 26.4029 47.9456 26.4029C48.0773 26.4029 48.2044 26.3844 48.3276 26.3476C48.4507 26.3145 48.5481 26.2593 48.6245 26.1855C48.701 26.1119 48.7391 26.0163 48.7391 25.8948C48.7391 25.7989 48.7181 25.7217 48.6756 25.6628C48.6289 25.604 48.5693 25.5559 48.4974 25.5192C48.4209 25.4859 48.3318 25.4566 48.2342 25.4308C48.1621 25.4123 48.0857 25.394 48.0094 25.3756C47.9329 25.3608 47.8608 25.3461 47.7887 25.3277C47.7166 25.3092 47.6445 25.2908 47.5808 25.2725C47.4918 25.2505 47.4069 25.2246 47.3219 25.1915C47.233 25.1583 47.1565 25.1177 47.0929 25.07C47.025 25.0221 46.9698 24.9595 46.9317 24.8895C46.8893 24.8195 46.8681 24.7311 46.8681 24.6281C46.8681 24.5212 46.8852 24.4293 46.9233 24.3519C46.9614 24.2745 47.0123 24.2083 47.0802 24.1532C47.1483 24.098 47.2246 24.0537 47.3136 24.0206C47.4028 23.9874 47.4961 23.9653 47.598 23.9469C47.6955 23.9322 47.7972 23.9248 47.9035 23.9248C48.0646 23.9248 48.2175 23.9431 48.3575 23.9838C48.4974 24.0243 48.6163 24.0868 48.7139 24.1751C48.8114 24.2635 48.875 24.3812 48.9006 24.5324H48.6545C48.6247 24.4255 48.5739 24.3445 48.4974 24.2819C48.4169 24.2194 48.3278 24.1751 48.2215 24.1494C48.1156 24.1235 48.0094 24.1089 47.8991 24.1089C47.8101 24.1089 47.721 24.1163 47.632 24.131C47.5428 24.1494 47.4578 24.1751 47.3815 24.212C47.3051 24.2488 47.2415 24.2968 47.1948 24.3593C47.1481 24.4219 47.1227 24.5029 47.1227 24.5986C47.1227 24.6943 47.1483 24.7716 47.1948 24.8342C47.2415 24.8969 47.3009 24.9447 47.3773 24.9816C47.4494 25.0185 47.5343 25.0515 47.6276 25.0772C47.7508 25.1105 47.8822 25.1398 48.0137 25.1657C48.1452 25.1913 48.2725 25.2246 48.3913 25.2577C48.4763 25.2798 48.557 25.3092 48.6289 25.3423C48.7012 25.3792 48.7647 25.4233 48.8199 25.4713C48.875 25.5192 48.9175 25.5743 48.9471 25.6369C48.9769 25.6995 48.9939 25.7732 48.9939 25.8505C48.9939 25.9868 48.9642 26.1009 48.9089 26.193C48.8495 26.285 48.7689 26.3622 48.6714 26.4213C48.5738 26.4801 48.4593 26.5206 48.3361 26.5465C48.2132 26.5759 48.0817 26.587 47.9458 26.587H47.9456Z" fill="#FE830C"/>
<path d="M50.296 26.5573V24.1456H49.2905V23.9541H51.5435V24.1456H50.5379V26.5573H50.296Z" fill="#FE830C"/>
<path d="M51.467 26.5573L52.6254 23.9541H52.9351L54.102 26.5573H53.8305L53.5673 25.9718H51.9932L51.7344 26.5573H51.467ZM52.0738 25.7841H53.4866L52.7823 24.1713L52.0738 25.7841Z" fill="#FE830C"/>
<path d="M55.031 26.5575V24.1458H54.0255V23.9543H56.2785V24.1458H55.2731V26.5575H55.031ZM56.7411 26.5575V23.9543H58.7015V24.1456H56.983V25.1693H58.5275V25.3608H56.983V26.366H58.7015V26.5575H56.7411ZM60.4537 26.5575V23.9543H60.6957V26.5575H60.4537ZM61.4679 26.5575V23.9543H61.7988L63.6065 26.2924V23.9543H63.8484V26.5575H63.5302L61.7098 24.2194V26.5575H61.4679ZM64.6206 26.5575V23.9543H66.5809V24.1456H64.8624V25.2613H66.3433V25.4528H64.8624V26.5575H64.6206ZM68.3798 26.587C68.0701 26.587 67.8115 26.528 67.6034 26.4139C67.3956 26.2998 67.2385 26.1414 67.1324 25.9389C67.0264 25.7401 66.9755 25.5118 66.9755 25.2577C66.9755 25.0036 67.0307 24.7753 67.1366 24.5727C67.2429 24.3704 67.3998 24.212 67.6077 24.0979C67.8155 23.9838 68.0701 23.9248 68.3798 23.9248C68.6896 23.9248 68.9484 23.9838 69.1564 24.0979C69.3643 24.2156 69.5171 24.374 69.6232 24.5727C69.7292 24.7754 69.7803 25.0038 69.7803 25.2577C69.7803 25.5118 69.7292 25.7364 69.6232 25.9389C69.5171 26.1414 69.3602 26.2998 69.1522 26.4139C68.9443 26.528 68.6896 26.587 68.3798 26.587ZM68.3798 26.4029C68.6388 26.4029 68.8551 26.3513 69.0249 26.2483C69.1945 26.145 69.3218 26.0051 69.4025 25.832C69.4831 25.659 69.5256 25.4675 69.5256 25.2577C69.5256 25.0993 69.5044 24.9521 69.4577 24.8121C69.411 24.676 69.3389 24.5545 69.2454 24.4476C69.1522 24.3409 69.0333 24.2597 68.889 24.1973C68.7448 24.1384 68.5752 24.1089 68.3798 24.1089C68.1212 24.1089 67.9047 24.1604 67.7349 24.2673C67.5611 24.3741 67.4336 24.5103 67.3529 24.6834C67.2683 24.8564 67.2258 25.0479 67.2258 25.2577C67.2258 25.464 67.2683 25.6555 67.3529 25.8286C67.4379 26.0016 67.5652 26.1416 67.7392 26.2446C67.9089 26.3513 68.121 26.4029 68.3798 26.4029ZM70.387 26.5575V23.9543H71.49C71.6471 23.9543 71.7913 23.9689 71.923 23.9946C72.0501 24.0241 72.1606 24.0684 72.2539 24.131C72.3431 24.1935 72.415 24.2745 72.466 24.374C72.5127 24.4771 72.5381 24.6024 72.5381 24.7459C72.5381 24.8821 72.5085 25 72.4533 25.0993C72.3981 25.1989 72.3133 25.2835 72.2072 25.3497C72.1012 25.4161 71.9739 25.464 71.8253 25.4935L72.4788 26.5575H72.2114L71.575 25.5302H70.6288V26.5575H70.387ZM70.6288 25.3423H71.3714C71.4902 25.3423 71.6048 25.3349 71.715 25.3166C71.8255 25.3018 71.923 25.2724 72.012 25.2282C72.097 25.1839 72.1649 25.1214 72.2158 25.0405C72.2624 24.9631 72.2879 24.8601 72.2879 24.7348C72.2921 24.5838 72.2583 24.4624 72.1862 24.3776C72.1139 24.2928 72.012 24.2304 71.889 24.1972C71.7619 24.1641 71.6133 24.1456 71.4477 24.1456H70.629V25.3423H70.6288ZM73.1662 26.5575V23.9543H73.5227L74.5792 25.5411L75.6188 23.9543H75.9668V26.5575H75.7247V24.1897L74.6342 25.8505H74.5154L73.4081 24.1897V26.5575H73.1662ZM76.4123 26.5575L77.5706 23.9543H77.8803L79.0472 26.5575H78.7757L78.5125 25.972H76.9384L76.6796 26.5575H76.4123ZM77.0191 25.7841H78.4321L77.7276 24.1715L77.0191 25.7841Z" fill="#FE830C"/>
<path d="M79.9752 26.5577V24.1459H78.9697V23.9544H81.2227V24.1459H80.2171V26.5577H79.9754H79.9752ZM81.6853 26.5577V23.9544H81.9272V26.5577H81.6853ZM83.9385 26.5871C83.6286 26.5871 83.3698 26.5282 83.1619 26.4141C82.9539 26.3 82.797 26.1416 82.6909 25.939C82.5849 25.7403 82.534 25.5119 82.534 25.2579C82.534 25.0038 82.589 24.7754 82.6951 24.5729C82.8012 24.3704 82.9583 24.2121 83.1662 24.098C83.374 23.9839 83.6286 23.9248 83.9385 23.9248C84.2481 23.9248 84.5069 23.9839 84.7149 24.098C84.9228 24.2158 85.0756 24.3741 85.1817 24.5729C85.2877 24.7756 85.3386 25.0038 85.3386 25.2579C85.3386 25.5119 85.2877 25.7365 85.1817 25.939C85.0756 26.1416 84.9187 26.2998 84.7107 26.4141C84.5028 26.5282 84.2481 26.5871 83.9385 26.5871ZM83.9385 26.403C84.1973 26.403 84.4136 26.3513 84.5834 26.2484C84.753 26.1452 84.8803 26.0052 84.961 25.8322C85.0416 25.6591 85.0841 25.4676 85.0841 25.2579C85.0841 25.0995 85.0629 24.9523 85.0162 24.8123C84.9695 24.6761 84.8974 24.5545 84.8039 24.4477C84.7105 24.341 84.5918 24.2599 84.4475 24.1975C84.3033 24.1385 84.1335 24.109 83.9385 24.109C83.6795 24.109 83.4632 24.1606 83.2934 24.2674C83.1194 24.3741 82.9921 24.5105 82.9116 24.6835C82.8268 24.8566 82.7843 25.0481 82.7843 25.2579C82.7843 25.4642 82.8268 25.6557 82.9116 25.8287C82.9964 26.0016 83.1237 26.1416 83.2975 26.2448C83.4673 26.3515 83.6795 26.403 83.9383 26.403H83.9385ZM85.9454 26.5577V23.9543H86.2765L88.0839 26.2926V23.9543H88.3258V26.5577H88.0076L86.1875 24.2194V26.5577H85.9454ZM91.2875 26.587C91.1135 26.587 90.9481 26.5685 90.791 26.5282C90.6299 26.4875 90.4898 26.4213 90.3711 26.3293C90.2521 26.2372 90.1673 26.1157 90.1162 25.9647H90.3794C90.4346 26.0716 90.5067 26.1599 90.6043 26.2224C90.702 26.2852 90.808 26.3329 90.931 26.3588C91.05 26.3882 91.1686 26.4029 91.2875 26.4029C91.419 26.4029 91.5461 26.3846 91.6693 26.3477C91.7924 26.3146 91.8899 26.2593 91.9662 26.1857C92.0429 26.1119 92.081 26.0163 92.081 25.8948C92.081 25.7991 92.0598 25.7217 92.0173 25.6629C91.9706 25.604 91.9112 25.5561 91.8391 25.5192C91.7628 25.4861 91.6736 25.4566 91.5761 25.4309C91.5038 25.4125 91.4275 25.394 91.3511 25.3757C91.2748 25.3609 91.2025 25.3463 91.1306 25.3277C91.0583 25.3094 90.9862 25.291 90.9226 25.2725C90.8336 25.2505 90.7486 25.2248 90.6638 25.1915C90.5747 25.1584 90.4982 25.1179 90.4346 25.07C90.3669 25.0222 90.3115 24.9595 90.2735 24.8895C90.231 24.8197 90.21 24.7313 90.21 24.6282C90.21 24.5214 90.2269 24.4295 90.265 24.3521C90.3033 24.2747 90.3542 24.2083 90.4221 24.1532C90.49 24.098 90.5663 24.0537 90.6555 24.0206C90.7445 23.9875 90.8378 23.9655 90.9397 23.9469C91.0372 23.9322 91.1391 23.9248 91.2452 23.9248C91.4065 23.9248 91.5592 23.9432 91.6992 23.9837C91.8393 24.0243 91.958 24.0868 92.0556 24.1752C92.1533 24.2635 92.2169 24.3814 92.2425 24.5324H91.9962C91.9666 24.4257 91.9157 24.3445 91.8393 24.2821C91.7586 24.2195 91.6695 24.1752 91.5634 24.1496C91.4573 24.1237 91.3513 24.1089 91.2408 24.1089C91.1518 24.1089 91.0627 24.1163 90.9737 24.1311C90.8845 24.1496 90.7997 24.1752 90.7232 24.2121C90.6469 24.2488 90.5832 24.2968 90.5365 24.3593C90.49 24.4219 90.4644 24.5029 90.4644 24.5987C90.4644 24.6944 90.49 24.7718 90.5365 24.8344C90.5832 24.8969 90.6426 24.9448 90.719 24.9816C90.7911 25.0185 90.876 25.0515 90.9695 25.0774C91.0925 25.1105 91.2239 25.14 91.3556 25.1658C91.4869 25.1915 91.6144 25.2246 91.7332 25.2577C91.818 25.2799 91.8987 25.3092 91.9708 25.3423C92.0429 25.3792 92.1064 25.4235 92.1616 25.4713C92.2169 25.5192 92.2594 25.5743 92.2888 25.6371C92.3186 25.6996 92.3356 25.7732 92.3356 25.8505C92.3356 25.9868 92.306 26.1009 92.2506 26.193C92.1912 26.2852 92.1108 26.3624 92.0131 26.4213C91.9156 26.4801 91.8009 26.5208 91.678 26.5466C91.5549 26.5759 91.4234 26.587 91.2875 26.587Z" fill="#FE830C"/>
<path d="M93.6545 26.5573V25.5779L92.5895 23.9541H92.8781L93.7775 25.3644L94.6772 23.9541H94.9529L93.8962 25.5742V26.5573H93.6545Z" fill="#FE830C"/>
<path d="M96.3743 26.587C96.2003 26.587 96.0348 26.5685 95.8777 26.5282C95.7166 26.4875 95.5764 26.4213 95.4578 26.3293C95.3389 26.2371 95.254 26.1157 95.203 25.9647H95.4662C95.5214 26.0716 95.5935 26.1599 95.691 26.2224C95.7885 26.285 95.8948 26.3329 96.0178 26.3586C96.1367 26.3882 96.2553 26.4029 96.3743 26.4029C96.5058 26.4029 96.6329 26.3844 96.756 26.3476C96.8792 26.3145 96.9767 26.2593 97.053 26.1855C97.1294 26.1119 97.1678 26.0163 97.1678 25.8948C97.1678 25.7989 97.1465 25.7217 97.104 25.6628C97.0573 25.604 96.998 25.5559 96.9258 25.5192C96.8496 25.4859 96.7604 25.4566 96.6629 25.4308C96.5906 25.4125 96.5143 25.394 96.4378 25.3756C96.3616 25.3609 96.2893 25.3463 96.2174 25.3277C96.1451 25.3092 96.073 25.291 96.0094 25.2725C95.9202 25.2505 95.8354 25.2246 95.7506 25.1915C95.6614 25.1584 95.5849 25.1177 95.5214 25.07C95.4536 25.0222 95.3982 24.9595 95.3603 24.8895C95.3178 24.8195 95.2967 24.7311 95.2967 24.6281C95.2967 24.5214 95.3136 24.4293 95.3517 24.3519C95.3901 24.2747 95.4409 24.2083 95.5089 24.1532C95.5768 24.098 95.6531 24.0537 95.7422 24.0206C95.8312 23.9875 95.9246 23.9653 96.0265 23.9469C96.124 23.9322 96.2259 23.9248 96.3319 23.9248C96.493 23.9248 96.646 23.9432 96.786 23.9838C96.926 24.0243 97.0448 24.0868 97.1423 24.1752C97.24 24.2635 97.3036 24.3814 97.329 24.5324H97.0829C97.0532 24.4255 97.0023 24.3445 96.926 24.2819C96.8454 24.2194 96.7562 24.1752 96.6501 24.1494C96.5441 24.1237 96.438 24.1089 96.3276 24.1089C96.2386 24.1089 96.1494 24.1163 96.0604 24.1311C95.9713 24.1494 95.8864 24.1752 95.81 24.212C95.7337 24.2488 95.67 24.2968 95.6233 24.3593C95.5766 24.4219 95.5512 24.5029 95.5512 24.5987C95.5512 24.6943 95.5768 24.7716 95.6233 24.8342C95.67 24.8969 95.7293 24.9448 95.8058 24.9816C95.8779 25.0185 95.9627 25.0515 96.0562 25.0774C96.1794 25.1105 96.3107 25.1398 96.4424 25.1657C96.5739 25.1915 96.7012 25.2246 96.8198 25.2577C96.9048 25.2798 96.9854 25.3092 97.0575 25.3423C97.1296 25.3792 97.1932 25.4235 97.2484 25.4713C97.3036 25.5192 97.3459 25.5743 97.3755 25.6371C97.4055 25.6995 97.4224 25.7732 97.4224 25.8505C97.4224 25.9868 97.3928 26.1009 97.3374 26.193C97.278 26.285 97.1974 26.3624 97.0998 26.4213C97.0023 26.4801 96.8877 26.5206 96.7647 26.5465C96.6416 26.5759 96.5101 26.587 96.3743 26.587Z" fill="#FE830C"/>
<path d="M98.7246 26.5575V24.1458H97.7191V23.9543H99.9721V24.1458H98.9667V26.5575H98.7246ZM100.435 26.5575V23.9543H102.395V24.1456H100.677V25.1693H102.221V25.3608H100.677V26.366H102.395V26.5575H100.435ZM103.002 26.5575V23.9543H103.358L104.415 25.5412L105.454 23.9543H105.802V26.5575H105.56V24.1899L104.47 25.8505H104.351L103.244 24.1899V26.5575H103.002ZM107.618 26.587C107.444 26.587 107.279 26.5685 107.122 26.528C106.961 26.4875 106.821 26.4213 106.702 26.3291C106.583 26.2371 106.498 26.1157 106.447 25.9647H106.71C106.765 26.0716 106.838 26.1599 106.935 26.2224C107.033 26.285 107.139 26.3329 107.262 26.3586C107.381 26.3881 107.499 26.4029 107.618 26.4029C107.75 26.4029 107.877 26.3844 108 26.3476C108.123 26.3145 108.221 26.2593 108.297 26.1855C108.374 26.1119 108.412 26.0163 108.412 25.8948C108.412 25.7989 108.391 25.7217 108.348 25.6628C108.301 25.604 108.242 25.5559 108.17 25.5192C108.094 25.4859 108.004 25.4566 107.907 25.4308C107.835 25.4123 107.758 25.394 107.682 25.3756C107.606 25.3608 107.533 25.3461 107.461 25.3277C107.389 25.3092 107.317 25.2908 107.253 25.2725C107.164 25.2505 107.079 25.2246 106.995 25.1915C106.905 25.1583 106.829 25.1177 106.766 25.07C106.698 25.0221 106.642 24.9595 106.604 24.8895C106.562 24.8195 106.541 24.7311 106.541 24.6281C106.541 24.5212 106.558 24.4293 106.596 24.3519C106.634 24.2745 106.685 24.2083 106.753 24.1532C106.821 24.098 106.897 24.0537 106.986 24.0206C107.075 23.9874 107.169 23.9653 107.27 23.9469C107.368 23.9322 107.47 23.9248 107.576 23.9248C107.737 23.9248 107.89 23.9431 108.03 23.9838C108.17 24.0243 108.289 24.0868 108.386 24.1751C108.484 24.2635 108.548 24.3812 108.573 24.5324H108.327C108.297 24.4255 108.246 24.3445 108.17 24.2819C108.09 24.2194 108 24.1751 107.894 24.1494C107.788 24.1235 107.682 24.1089 107.572 24.1089C107.483 24.1089 107.393 24.1163 107.304 24.131C107.215 24.1494 107.13 24.1751 107.054 24.212C106.978 24.2488 106.914 24.2968 106.867 24.3593C106.821 24.4219 106.795 24.5029 106.795 24.5986C106.795 24.6943 106.821 24.7716 106.867 24.8342C106.914 24.8969 106.974 24.9447 107.05 24.9816C107.122 25.0185 107.207 25.0515 107.3 25.0772C107.423 25.1105 107.555 25.1398 107.686 25.1657C107.818 25.1913 107.945 25.2246 108.064 25.2577C108.149 25.2798 108.229 25.3092 108.302 25.3423C108.374 25.3792 108.437 25.4233 108.492 25.4713C108.548 25.5192 108.59 25.5743 108.62 25.6369C108.65 25.6995 108.666 25.7732 108.666 25.8505C108.666 25.9868 108.637 26.1009 108.582 26.193C108.522 26.285 108.442 26.3622 108.344 26.4213C108.246 26.4801 108.132 26.5206 108.009 26.5465C107.886 26.5759 107.754 26.587 107.618 26.587Z" fill="#FE830C"/>
<path d="M52.6517 11.7172C52.6517 13.2598 52.0896 14.4403 50.983 15.2431C49.8766 16.0617 48.2805 16.4708 46.2307 16.4708C44.163 16.4708 42.5667 16.0617 41.4603 15.2431C40.3357 14.4403 39.7734 13.2598 39.7734 11.7172V5.29508H42.73V11.9218C42.73 12.52 42.857 12.9765 43.0927 13.2914C43.3286 13.6219 43.7095 13.8423 44.1993 13.9524C44.689 14.0784 45.3782 14.1413 46.2307 14.1413C47.0833 14.1413 47.7725 14.0784 48.2621 13.9524C48.752 13.8264 49.133 13.606 49.3687 13.2756C49.6045 12.9608 49.7133 12.5042 49.7133 11.9218V5.29508H52.6517V11.7172ZM54.52 13.8738L61.7031 7.546H54.7196V5.29508H65.6753V7.81361L58.4562 14.0627H65.8567V16.3135H54.52V13.8738ZM67.8883 5.29508H70.9173V16.3135H67.8883V5.29508ZM73.7651 5.29508H77.7012L82.7618 11.4182L83.959 12.8978H84.0315L84.0134 11.4497V5.29508H86.9519V16.3135H83.179L77.9732 9.95427L76.758 8.44319H76.6854L76.7037 9.95427V16.3135H73.7651V5.29508ZM92.738 7.6404V9.87562H98.7783V12.1422H92.738V16.3135H89.7816V5.29508H99.3767V7.6404H92.738ZM108.265 16.4708C106.832 16.4708 105.544 16.2347 104.438 15.7785C103.331 15.3219 102.46 14.6765 101.844 13.8265C101.209 12.9766 100.9 11.9848 100.9 10.8358C100.9 9.68672 101.209 8.67929 101.844 7.81361C102.46 6.9478 103.331 6.28673 104.456 5.83034C105.562 5.37384 106.832 5.13776 108.265 5.13776C109.698 5.13776 110.985 5.3739 112.092 5.83034C113.198 6.28677 114.051 6.94786 114.668 7.81361C115.284 8.67934 115.593 9.68672 115.593 10.8358C115.593 11.9848 115.284 12.9766 114.668 13.8265C114.033 14.6765 113.18 15.3219 112.074 15.7785C110.967 16.2349 109.698 16.4708 108.265 16.4708ZM108.265 14.1413C109.752 14.1413 110.84 13.8737 111.53 13.3385C112.201 12.8191 112.545 11.9692 112.545 10.8044C112.545 9.95433 112.4 9.29318 112.092 8.8053C111.784 8.31736 111.33 7.97106 110.713 7.7664C110.097 7.56181 109.28 7.46725 108.265 7.46725C107.249 7.46725 106.433 7.56176 105.816 7.7664C105.181 7.971 104.728 8.31736 104.419 8.8053C104.111 9.29318 103.966 9.95433 103.966 10.8044C103.966 11.6702 104.111 12.3469 104.419 12.8349C104.728 13.3229 105.181 13.6534 105.798 13.8423C106.415 14.0469 107.231 14.1413 108.265 14.1413ZM124.209 16.4708C122.757 16.4708 121.47 16.2347 120.363 15.7785C119.239 15.3219 118.368 14.6765 117.751 13.8265C117.116 12.9766 116.808 11.9848 116.808 10.8358C116.808 9.67098 117.098 8.66365 117.697 7.79785C118.295 6.9478 119.148 6.28673 120.254 5.83029C121.361 5.37379 122.685 5.1377 124.208 5.1377C126.113 5.1377 127.637 5.53112 128.798 6.30247C129.94 7.08951 130.648 8.25423 130.92 9.78112L127.963 10.2691L127.927 10.2534C127.782 9.4977 127.601 8.93118 127.365 8.53758C127.129 8.14414 126.784 7.87643 126.312 7.70334C125.823 7.54594 125.134 7.46718 124.208 7.46718C123.102 7.46718 122.249 7.5617 121.633 7.76636C120.998 7.97093 120.563 8.31729 120.291 8.80523C120.018 9.29311 119.873 9.95426 119.873 10.8043C119.873 11.6701 120.019 12.3311 120.291 12.819C120.563 13.307 121.016 13.6376 121.651 13.8422C122.268 14.0468 123.12 14.1412 124.209 14.1412C125.134 14.1412 125.823 14.0469 126.313 13.8736C126.802 13.7006 127.147 13.4328 127.383 13.0394C127.619 12.6459 127.8 12.0793 127.927 11.3394L127.963 11.3237L130.92 11.8116C130.648 13.3542 129.94 14.519 128.798 15.2903C127.637 16.0774 126.113 16.4708 124.209 16.4708ZM139.772 16.4708C138.339 16.4708 137.051 16.2347 135.944 15.7785C134.838 15.3219 133.967 14.6765 133.35 13.8265C132.715 12.9766 132.407 11.9848 132.407 10.8358C132.407 9.68672 132.715 8.67929 133.35 7.81361C133.967 6.9478 134.838 6.28673 135.962 5.83034C137.069 5.37384 138.339 5.13776 139.772 5.13776C141.204 5.13776 142.492 5.3739 143.599 5.83034C144.705 6.28677 145.558 6.94786 146.174 7.81361C146.791 8.67934 147.1 9.68672 147.1 10.8358C147.1 11.9848 146.791 12.9766 146.174 13.8265C145.54 14.6765 144.687 15.3219 143.58 15.7785C142.474 16.2349 141.204 16.4708 139.772 16.4708ZM139.772 14.1413C141.259 14.1413 142.347 13.8737 143.037 13.3385C143.708 12.8191 144.052 11.9692 144.052 10.8044C144.052 9.95433 143.907 9.29318 143.599 8.8053C143.29 8.31736 142.837 7.97106 142.22 7.7664C141.603 7.56181 140.787 7.46725 139.772 7.46725C138.756 7.46725 137.939 7.56176 137.323 7.7664C136.688 7.971 136.235 8.31736 135.926 8.8053C135.618 9.29318 135.473 9.95433 135.473 10.8044C135.473 11.6702 135.618 12.3469 135.926 12.8349C136.235 13.3229 136.688 13.6534 137.305 13.8423C137.921 14.0469 138.738 14.1413 139.772 14.1413ZM149.131 5.29508H154.137L156.749 11.7487L157.547 13.9997L158.345 11.7487L160.939 5.29508H165.927V16.3135H163.098V9.89132L163.134 7.67184H163.062L162.136 9.89132L159.379 16.3135H155.715L152.94 9.89132L152.033 7.67184H151.961L151.979 9.89132V16.3135H149.131V5.29508Z" fill="#FE830C"/>
<path fill-rule="evenodd" clip-rule="evenodd" d="M33.323 0.000120241H4.37708C1.96962 0.000120241 0 1.70929 0 3.79855V4.64294C0.791796 4.74797 1.67102 4.95076 2.62354 5.2439C5.62288 6.16736 9.35724 7.99244 13.3669 10.5122C16.6256 8.40547 19.6241 6.89824 22.0566 6.1501C24.4325 5.41922 26.2767 5.41074 27.3083 6.2704C28.4768 7.24364 28.4298 9.18974 27.3876 11.7386C26.323 14.3415 24.22 17.5822 21.3167 21.0617C23.7445 23.8897 25.4808 26.4921 26.343 28.6029C26.3867 28.7092 26.4276 28.8138 26.4665 28.9175H28.9459C31.3533 28.9175 33.323 27.2087 33.323 25.1195V0.000120241ZM0 15.9484V25.1192C0 26.5403 0.911235 27.785 2.25159 28.4359C3.27311 28.462 4.50926 28.2445 5.91503 27.8058C8.78076 26.9124 12.3462 25.1029 16.2452 22.5694C16.2759 22.549 16.3205 22.5547 16.3443 22.5815C16.3658 22.6066 16.362 22.6419 16.3365 22.6631C15.2381 23.5721 14.1438 24.432 13.0641 25.2382C11.9649 26.0585 10.8801 26.8237 9.82073 27.5273L9.82024 27.5277L9.20185 27.9333L9.20158 27.9334L9.20081 27.9339L9.20032 27.9342C8.66869 28.2784 8.14375 28.6064 7.62616 28.9174H21.1381C22.1387 27.9177 22.082 26.1551 21.139 23.8774C20.1092 21.3906 18.024 18.2966 15.1045 14.9128C15.0809 14.886 15.0873 14.847 15.1184 14.8266C15.1474 14.808 15.188 14.8114 15.2123 14.8334H15.2126C16.2598 15.7867 17.2514 16.7366 18.1803 17.6734C19.0991 18.6006 19.9576 19.516 20.75 20.4109C22.1218 18.0895 23.0066 16.0303 23.3226 14.3677C23.6278 12.7605 23.4015 11.5266 22.5695 10.7889C21.4487 9.7957 19.3541 9.81091 16.6114 10.6662C13.7457 11.5598 10.1808 13.369 6.28152 15.9027C6.25054 15.923 6.2062 15.9176 6.18216 15.8904C6.16083 15.8655 6.1647 15.83 6.19035 15.8091H6.19013C7.28814 14.9007 8.382 14.0406 9.46124 13.2351C10.5297 12.4372 11.5856 11.692 12.6171 11.0042C9.94204 9.81373 7.56927 9.04552 5.65343 8.77131C3.80102 8.50616 2.37934 8.70253 1.52928 9.42482C0.384363 10.3975 0.402445 12.2152 1.38795 14.5948C2.4173 17.0817 4.50254 20.1758 7.42213 23.5588C7.44575 23.5859 7.43889 23.6247 7.40765 23.645C7.37917 23.664 7.33843 23.6607 7.31392 23.6381V23.6386C6.26703 22.6857 5.2764 21.7364 4.34791 20.7999C3.40218 19.8456 2.52004 18.9039 1.70913 17.9841L1.70871 17.9839L1.24128 17.4472L1.24073 17.4469L1.24052 17.4461L1.2399 17.4458C0.80399 16.939 0.390599 16.4393 0 15.9484Z" fill="#4C51C6"/>
</g>
</mask>
<g mask="url(#mask0_5_10653)">
<rect width="166" height="29" fill="#258A8D"/>
</g>
<defs>
<clipPath id="clip0_5_10653">
<rect width="166" height="29" fill="white"/>
</clipPath>
</defs>
</svg>
