<svg width="16" height="20" viewBox="0 0 16 20" fill="none" xmlns="http://www.w3.org/2000/svg">
<path fill-rule="evenodd" clip-rule="evenodd" d="M3.86104 3.86104C3.86104 1.72865 5.58969 0 7.72208 0C9.85448 0 11.5831 1.72865 11.5831 3.86104H12.5484C14.1477 3.86104 15.4442 5.15753 15.4442 6.75682V16.4094C15.4442 18.0087 14.1477 19.3052 12.5484 19.3052H2.89578C1.29649 19.3052 0 18.0087 0 16.4094V6.75682C0 5.15753 1.29649 3.86104 2.89578 3.86104H3.86104ZM5.79156 3.86104C5.79156 2.79485 6.65589 1.93052 7.72208 1.93052C8.78828 1.93052 9.65261 2.79485 9.65261 3.86104H5.79156ZM3.86104 5.79156V6.27419C3.86104 6.80729 4.2932 7.23945 4.8263 7.23945C5.3594 7.23945 5.79156 6.80729 5.79156 6.27419V5.79156H9.65261V6.27419C9.65261 6.80729 10.0848 7.23945 10.6179 7.23945C11.151 7.23945 11.5831 6.80729 11.5831 6.27419V5.79156H12.5484C13.0815 5.79156 13.5136 6.22373 13.5136 6.75682V16.4094C13.5136 16.9425 13.0815 17.3747 12.5484 17.3747H2.89578C2.36268 17.3747 1.93052 16.9425 1.93052 16.4094V6.75682C1.93052 6.22373 2.36268 5.79156 2.89578 5.79156H3.86104Z" fill="#8BB9FF" style="fill:#8BB9FF;fill:color(display-p3 0.5436 0.7241 1.0000);fill-opacity:1;"/>
</svg>
