<svg width="66" height="66" viewBox="0 0 66 66" fill="none" xmlns="http://www.w3.org/2000/svg">
<path opacity="0.9" d="M20.2001 17.0274H17.1453C10.8419 17.0274 7.92731 18.473 6.55179 20.0656C5.18962 21.6448 4.76896 24.032 5.13621 27.4208C10.8621 31.0063 17.2752 33.3537 23.9628 34.3119C24.6222 32.5646 25.7987 31.06 27.3354 29.9987C28.8721 28.9375 30.6959 28.3701 32.5634 28.3723C34.4309 28.3745 36.2533 28.9461 37.7875 30.0109C39.3217 31.0757 40.4948 32.5831 41.1501 34.3319C47.7138 33.4171 54.1374 31.1267 59.9599 27.5209C60.3472 24.0821 59.9266 21.6615 58.5544 20.0656C57.1789 18.473 54.2642 17.0274 47.9609 17.0274H20.2001ZM0.168315 28.0952C-0.265707 24.229 -0.0119711 20.0088 2.76244 16.7937C5.54686 13.5618 10.2877 12.0193 17.1453 12.0193H17.7229C17.7229 10.7573 17.7229 9.35505 17.8998 8.0396C18.0834 6.67073 18.4807 5.19168 19.4156 3.86622C21.382 1.09509 24.941 0 30.0892 0H35.017C40.1652 0 43.7242 1.09843 45.6906 3.86956C46.6254 5.19168 47.0261 6.66739 47.2064 8.04294C47.3833 9.35505 47.3833 10.7573 47.3833 12.0193H47.9609C54.8185 12.0193 59.5593 13.5618 62.3437 16.7937C65.1181 20.0088 65.3719 24.229 64.9345 28.0952L62.6208 52.1472C62.2803 55.2622 61.4724 58.7345 58.5744 61.3153C55.7165 63.8627 51.3162 65.1047 44.8793 65.1047H20.2268C13.7866 65.1047 9.38963 63.8627 6.53176 61.3153C3.63382 58.7345 2.82587 55.2655 2.48533 52.1472L2.47865 52.1138L0.168315 28.0952ZM42.3787 12.0193C42.3787 10.6972 42.372 9.6355 42.2451 8.704C42.1216 7.77584 41.9013 7.18155 41.6075 6.76755C41.1067 6.05975 39.7378 5.00805 35.0203 5.00805H30.0925C25.3784 5.00805 24.0062 6.05975 23.5054 6.76421C23.2116 7.18155 22.9912 7.77584 22.8677 8.704C22.7408 9.63883 22.7342 10.6972 22.7342 12.0193H42.3787ZM32.5531 33.387C31.4463 33.387 30.3848 33.8267 29.6021 34.6094C28.8195 35.392 28.3798 36.4536 28.3798 37.5604C28.3798 38.6673 28.8195 39.7288 29.6021 40.5114C30.3848 41.2941 31.4463 41.7338 32.5531 41.7338C33.6599 41.7338 34.7214 41.2941 35.5041 40.5114C36.2867 39.7288 36.7264 38.6673 36.7264 37.5604C36.7264 36.4536 36.2867 35.392 35.5041 34.6094C34.7214 33.8267 33.6599 33.387 32.5531 33.387Z" fill="#1E1E1E" style="fill:#1E1E1E;fill:color(display-p3 0.1176 0.1176 0.1176);fill-opacity:1;"/>
</svg>
