<svg width="14" height="14" viewBox="0 0 14 14" fill="none" xmlns="http://www.w3.org/2000/svg">
<path fill-rule="evenodd" clip-rule="evenodd" d="M3.24331 0C3.58784 0 3.86713 0.279293 3.86713 0.623818V1.04295H6.03025V0.623818C6.03025 0.279293 6.30954 0 6.65406 0C6.99859 0 7.27788 0.279293 7.27788 0.623818V1.04295H9.35728V0.623818C9.35728 0.279293 9.63657 0 9.9811 0C10.3256 0 10.6049 0.279293 10.6049 0.623818V1.04295H11.0208C12.2841 1.04295 13.3081 2.06702 13.3081 3.33028V5.90354C13.3081 6.24806 13.0288 6.52735 12.6843 6.52735C12.3398 6.52735 12.0605 6.24806 12.0605 5.90354V3.33028C12.0605 2.75607 11.595 2.29058 11.0208 2.29058H10.6049V2.70437C10.6049 3.0489 10.3256 3.32819 9.9811 3.32819C9.63657 3.32819 9.35728 3.0489 9.35728 2.70437V2.29058H7.27788V2.70437C7.27788 3.0489 6.99859 3.32819 6.65406 3.32819C6.30954 3.32819 6.03025 3.0489 6.03025 2.70437V2.29058H3.86713V2.70437C3.86713 3.0489 3.58784 3.32819 3.24331 3.32819C2.89879 3.32819 2.61949 3.0489 2.61949 2.70437V2.29058H2.28733C1.71313 2.29058 1.24764 2.75607 1.24764 3.33028V11.024C1.24764 11.5983 1.71313 12.0637 2.28733 12.0637H5.90028C6.24481 12.0637 6.5241 12.343 6.5241 12.6876C6.5241 13.0321 6.24481 13.3114 5.90028 13.3114H2.28733C1.02407 13.3114 0 12.2873 0 11.024V3.33028C0 2.06702 1.02407 1.04295 2.28733 1.04295H2.61949V0.623818C2.61949 0.279293 2.89879 0 3.24331 0ZM3.84272 5.45126C3.84272 5.77282 3.58205 6.03349 3.26049 6.03349C2.93894 6.03349 2.67826 5.77282 2.67826 5.45126C2.67826 5.12971 2.93894 4.86903 3.26049 4.86903C3.58205 4.86903 3.84272 5.12971 3.84272 5.45126ZM5.50624 6.03349C5.82779 6.03349 6.08847 5.77282 6.08847 5.45126C6.08847 5.12971 5.82779 4.86903 5.50624 4.86903C5.18468 4.86903 4.92401 5.12971 4.92401 5.45126C4.92401 5.77282 5.18468 6.03349 5.50624 6.03349ZM3.84272 7.72196C3.84272 8.04352 3.58205 8.30419 3.26049 8.30419C2.93894 8.30419 2.67826 8.04352 2.67826 7.72196C2.67826 7.40041 2.93894 7.13973 3.26049 7.13973C3.58205 7.13973 3.84272 7.40041 3.84272 7.72196ZM5.50624 8.30419C5.82779 8.30419 6.08847 8.04352 6.08847 7.72196C6.08847 7.40041 5.82779 7.13973 5.50624 7.13973C5.18468 7.13973 4.92401 7.40041 4.92401 7.72196C4.92401 8.04352 5.18468 8.30419 5.50624 8.30419ZM3.84272 9.97603C3.84272 10.2976 3.58205 10.5583 3.26049 10.5583C2.93894 10.5583 2.67826 10.2976 2.67826 9.97603C2.67826 9.65447 2.93894 9.3938 3.26049 9.3938C3.58205 9.3938 3.84272 9.65447 3.84272 9.97603ZM5.50624 10.5583C5.82779 10.5583 6.08847 10.2976 6.08847 9.97603C6.08847 9.65447 5.82779 9.3938 5.50624 9.3938C5.18468 9.3938 4.92401 9.65447 4.92401 9.97603C4.92401 10.2976 5.18468 10.5583 5.50624 10.5583ZM8.35917 5.45126C8.35917 5.77282 8.0985 6.03349 7.77694 6.03349C7.45538 6.03349 7.19471 5.77282 7.19471 5.45126C7.19471 5.12971 7.45538 4.86903 7.77694 4.86903C8.0985 4.86903 8.35917 5.12971 8.35917 5.45126ZM10.0227 6.03349C10.3442 6.03349 10.6049 5.77282 10.6049 5.45126C10.6049 5.12971 10.3442 4.86903 10.0227 4.86903C9.70113 4.86903 9.44045 5.12971 9.44045 5.45126C9.44045 5.77282 9.70113 6.03349 10.0227 6.03349Z" fill="#3F434A" style="fill:#3F434A;fill:color(display-p3 0.2465 0.2646 0.2900);fill-opacity:1;"/>
<path fill-rule="evenodd" clip-rule="evenodd" d="M12.0607 9.98523C12.0607 11.1337 11.1297 12.0646 9.98133 12.0646C8.83291 12.0646 7.90193 11.1337 7.90193 9.98523C7.90193 8.83682 8.83291 7.90584 9.98133 7.90584C11.1297 7.90584 12.0607 8.83682 12.0607 9.98523ZM13.3084 9.98523C13.3084 11.8227 11.8188 13.3123 9.98133 13.3123C8.14386 13.3123 6.6543 11.8227 6.6543 9.98523C6.6543 8.14777 8.14386 6.6582 9.98133 6.6582C11.8188 6.6582 13.3084 8.14777 13.3084 9.98523ZM10.1477 9.15348C10.1477 8.92379 9.96148 8.7376 9.7318 8.7376C9.50212 8.7376 9.31592 8.92379 9.31592 9.15348V10.4011C9.31592 10.6308 9.50212 10.817 9.7318 10.817H10.7299C10.9596 10.817 11.1458 10.6308 11.1458 10.4011C11.1458 10.1714 10.9596 9.98523 10.7299 9.98523H10.1477V9.15348Z" fill="#3F434A" style="fill:#3F434A;fill:color(display-p3 0.2465 0.2646 0.2900);fill-opacity:1;"/>
</svg>
