<svg width="10" height="10" viewBox="0 0 10 10" fill="none" xmlns="http://www.w3.org/2000/svg">
<path d="M1.32032 3.4732C1.32032 3.28955 1.46787 3.14062 1.65014 3.14062H3.41167C3.5944 3.14062 3.74196 3.28955 3.74196 3.4732C3.74214 3.51675 3.73374 3.55991 3.71724 3.60022C3.70074 3.64053 3.67646 3.67719 3.64579 3.70811C3.61512 3.73904 3.57866 3.76362 3.53849 3.78045C3.49832 3.79729 3.45523 3.80604 3.41167 3.80622H1.65014C1.56226 3.80574 1.47817 3.7704 1.41632 3.70795C1.35448 3.64551 1.31995 3.56108 1.32032 3.4732Z" fill="#8A9099" style="fill:#8A9099;fill:color(display-p3 0.5412 0.5647 0.6000);fill-opacity:1;"/>
<path fill-rule="evenodd" clip-rule="evenodd" d="M8.7661 3.65425C8.73747 3.65272 8.70702 3.65212 8.67473 3.65242H7.40795C6.37049 3.65242 5.48242 4.44547 5.48242 5.47973C5.48242 6.51399 6.37049 7.30704 7.40795 7.30704H8.67473C8.70702 7.30734 8.73747 7.30674 8.7661 7.30521C9.18775 7.27963 9.56052 6.95939 9.59204 6.5117C9.59387 6.48247 9.59387 6.45095 9.59387 6.42171V4.53775C9.59387 4.50851 9.59387 4.47699 9.59204 4.44776C9.56052 4.00007 9.18775 3.68029 8.7661 3.65425ZM7.29648 5.96717C7.56327 5.96717 7.77981 5.7488 7.77981 5.47973C7.77981 5.2102 7.56327 4.99229 7.29648 4.99229C7.0297 4.99229 6.81225 5.21066 6.81225 5.47973C6.81225 5.74926 7.02924 5.96717 7.29648 5.96717Z" fill="#8A9099" style="fill:#8A9099;fill:color(display-p3 0.5412 0.5647 0.6000);fill-opacity:1;"/>
<path opacity="0.5" d="M8.74368 3.65224C8.74368 3.11273 8.72358 2.53393 8.37913 2.11958C8.34536 2.07908 8.30984 2.04006 8.27269 2.00263C7.93053 1.66093 7.497 1.50926 6.9616 1.43708C6.44081 1.36719 5.77613 1.36719 4.93648 1.36719H3.97166C3.13201 1.36719 2.46687 1.36719 1.94609 1.43708C1.41068 1.50926 0.977154 1.66093 0.63499 2.00263C0.293283 2.3448 0.141617 2.77833 0.0694378 3.31373C-2.04218e-08 3.83451 0 4.4992 0 5.33885V5.39001C0 6.22966 5.44581e-08 6.8948 0.0698947 7.41513C0.142073 7.95053 0.29374 8.38406 0.635447 8.72622C0.977611 9.06793 1.41114 9.2196 1.94654 9.29178C2.46733 9.36167 3.13201 9.36167 3.97166 9.36167H4.93648C5.77613 9.36167 6.44127 9.36167 6.9616 9.29178C7.497 9.2196 7.93053 9.06793 8.27269 8.72622C8.36558 8.63242 8.44568 8.53192 8.51298 8.42472C8.71856 8.0958 8.74322 7.69288 8.74322 7.30549L8.6747 7.30595H7.40746C6.37 7.30595 5.48193 6.51289 5.48193 5.47864C5.48193 4.44438 6.37 3.65133 7.40746 3.65133H8.67424C8.6983 3.65133 8.72175 3.65163 8.74368 3.65224Z" fill="#8A9099" style="fill:#8A9099;fill:color(display-p3 0.5412 0.5647 0.6000);fill-opacity:1;"/>
<path d="M3.7007 0.261157L2.7409 0.909852L1.94922 1.43977C2.46909 1.37033 3.13332 1.37033 3.97159 1.37033H4.93641C5.77606 1.37033 6.4412 1.37033 6.96153 1.44023C7.0663 1.45393 7.1671 1.47129 7.26395 1.49231L6.39552 0.913507L5.43024 0.261157C5.17399 0.0908507 4.87316 0 4.56547 0C4.25779 0 3.95695 0.0908507 3.7007 0.261157Z" fill="#8A9099" style="fill:#8A9099;fill:color(display-p3 0.5412 0.5647 0.6000);fill-opacity:1;"/>
</svg>
