<svg width="9" height="9" viewBox="0 0 9 9" fill="none" xmlns="http://www.w3.org/2000/svg">
<path fill-rule="evenodd" clip-rule="evenodd" d="M0.311473 7.89229C0.228866 7.89229 0.149641 7.9251 0.0912284 7.98351C0.0328159 8.04193 0 8.12115 0 8.20376C0 8.28637 0.0328159 8.36559 0.0912284 8.424C0.149641 8.48242 0.228866 8.51523 0.311473 8.51523H8.61743C8.70004 8.51523 8.77926 8.48242 8.83768 8.424C8.89609 8.36559 8.9289 8.28637 8.9289 8.20376C8.9289 8.12115 8.89609 8.04193 8.83768 7.98351C8.77926 7.9251 8.70004 7.89229 8.61743 7.89229H6.54094V5.71197C6.54094 4.92872 6.54094 4.53751 6.29758 4.29415C6.05421 4.05078 5.663 4.05078 4.87975 4.05078H4.04915C3.2659 4.05078 2.87469 4.05078 2.63133 4.29415C2.38796 4.53751 2.38796 4.92872 2.38796 5.71197V7.89229H0.311473ZM3.32238 5.29667C3.32238 5.21407 3.3552 5.13484 3.41361 5.07643C3.47202 5.01802 3.55125 4.9852 3.63386 4.9852H5.29505C5.37766 4.9852 5.45688 5.01802 5.51529 5.07643C5.5737 5.13484 5.60652 5.21407 5.60652 5.29667C5.60652 5.37928 5.5737 5.45851 5.51529 5.51692C5.45688 5.57533 5.37766 5.60815 5.29505 5.60815H3.63386C3.55125 5.60815 3.47202 5.57533 3.41361 5.51692C3.3552 5.45851 3.32238 5.37928 3.32238 5.29667ZM3.32238 6.54257C3.32238 6.45996 3.3552 6.38074 3.41361 6.32232C3.47202 6.26391 3.55125 6.23109 3.63386 6.23109H5.29505C5.37766 6.23109 5.45688 6.26391 5.51529 6.32232C5.5737 6.38074 5.60652 6.45996 5.60652 6.54257C5.60652 6.62518 5.5737 6.7044 5.51529 6.76281C5.45688 6.82123 5.37766 6.85404 5.29505 6.85404H3.63386C3.55125 6.85404 3.47202 6.82123 3.41361 6.76281C3.3552 6.7044 3.32238 6.62518 3.32238 6.54257Z" fill="#8A9099" style="fill:#8A9099;fill:color(display-p3 0.5412 0.5647 0.6000);fill-opacity:1;"/>
<path opacity="0.5" d="M2.8011 0.93442C3.19272 0.93442 3.38833 0.93442 3.51001 1.0561C3.63169 1.17778 3.63169 1.37339 3.63169 1.76502V2.50923C3.69648 2.54079 3.75379 2.58149 3.80363 2.63133C3.97141 2.79911 4.02373 3.03749 4.03993 3.42621V4.04915C3.26166 4.04915 2.8717 4.04998 2.62916 4.29252C2.3858 4.53588 2.3858 4.92709 2.3858 5.71034V7.89066H0.724609V4.04915C0.724609 3.2659 0.724609 2.87469 0.967974 2.63133C1.01793 2.58115 1.07607 2.53986 1.13991 2.50923V1.76502C1.13991 1.37339 1.13991 1.17778 1.26159 1.0561C1.38327 0.93442 1.57888 0.93442 1.9705 0.93442H2.07433V0.311473C2.07433 0.228865 2.10714 0.149641 2.16556 0.0912284C2.22397 0.0328158 2.30319 0 2.3858 0C2.46841 0 2.54763 0.0328158 2.60605 0.0912284C2.66446 0.149641 2.69727 0.228865 2.69727 0.311473V0.93442H2.8011ZM8.05212 1.24465C7.90428 1.03118 7.64347 0.933174 7.12186 0.737984C6.1023 0.355495 5.59273 0.164458 5.23516 0.411975C4.87759 0.660324 4.87759 1.20436 4.87759 2.29327V4.04915C5.66084 4.04915 6.05205 4.04915 6.29541 4.29252C6.53878 4.53588 6.53878 4.92709 6.53878 5.71034V7.89066H8.19997V2.29327C8.19997 1.73678 8.19997 1.45811 8.05212 1.24465Z" fill="#8A9099" style="fill:#8A9099;fill:color(display-p3 0.5412 0.5647 0.6000);fill-opacity:1;"/>
</svg>
