<svg width="9" height="9" viewBox="0 0 9 9" fill="none" xmlns="http://www.w3.org/2000/svg">
<path d="M2.05988 0C2.23347 0 2.37384 0.128742 2.37384 0.287386V0.867972C2.65209 0.862989 2.9644 0.862989 3.31574 0.862989H4.99022C5.34156 0.862989 5.65345 0.862989 5.93211 0.867972V0.287386C5.93211 0.128742 6.07248 0 6.24608 0C6.41967 0 6.56004 0.128742 6.56004 0.287386V0.89289C7.16222 0.936912 7.558 1.04572 7.84871 1.31151C8.13942 1.57772 8.25778 1.93986 8.30595 2.49179V2.90708H0V2.49179C0.0481745 1.93986 0.166534 1.57813 0.457243 1.31151C0.747951 1.04572 1.14331 0.936912 1.74591 0.89289V0.287386C1.74591 0.128742 1.8867 0 2.05988 0Z" fill="#8A9099" style="fill:#8A9099;fill:color(display-p3 0.5412 0.5647 0.6000);fill-opacity:1;"/>
<path opacity="0.5" d="M8.30586 4.98274V4.15214C8.30586 3.80371 8.30046 3.18242 8.29507 2.90625H0.0023995C-0.00299937 3.18242 0.0023995 3.80371 0.0023995 4.15214V4.98274C0.0023995 6.54883 0.00239957 7.33208 0.488298 7.81839C0.975442 8.30512 1.75828 8.30512 3.32395 8.30512H4.98514C6.55082 8.30512 7.33324 8.30512 7.81996 7.81839C8.30669 7.33166 8.30586 6.54883 8.30586 4.98274Z" fill="#8A9099" style="fill:#8A9099;fill:color(display-p3 0.5412 0.5647 0.6000);fill-opacity:1;"/>
<path fill-rule="evenodd" clip-rule="evenodd" d="M4.98458 4.25781C4.79183 4.25781 4.60697 4.33438 4.47068 4.47068C4.33438 4.60697 4.25781 4.79183 4.25781 4.98458V5.81518C4.25781 6.00793 4.33438 6.19279 4.47068 6.32908C4.60697 6.46538 4.79183 6.54195 4.98458 6.54195C5.17734 6.54195 5.36219 6.46538 5.49849 6.32908C5.63478 6.19279 5.71135 6.00793 5.71135 5.81518V4.98458C5.71135 4.79183 5.63478 4.60697 5.49849 4.47068C5.36219 4.33438 5.17734 4.25781 4.98458 4.25781ZM4.98458 4.88076C4.95705 4.88076 4.93064 4.8917 4.91117 4.91117C4.8917 4.93064 4.88076 4.95705 4.88076 4.98458V5.81518C4.88076 5.84272 4.8917 5.86912 4.91117 5.88859C4.93064 5.90807 4.95705 5.919 4.98458 5.919C5.01212 5.919 5.03853 5.90807 5.058 5.88859C5.07747 5.86912 5.08841 5.84272 5.08841 5.81518V4.98458C5.08841 4.95705 5.07747 4.93064 5.058 4.91117C5.03853 4.8917 5.01212 4.88076 4.98458 4.88076Z" fill="#8A9099" style="fill:#8A9099;fill:color(display-p3 0.5412 0.5647 0.6000);fill-opacity:1;"/>
<path d="M3.83773 4.57292C3.83768 4.51135 3.81938 4.45119 3.78515 4.40002C3.75092 4.34885 3.7023 4.30896 3.64542 4.28541C3.58854 4.26186 3.52595 4.25569 3.46557 4.26769C3.40519 4.27968 3.34971 4.30931 3.30615 4.35281L2.68321 4.97576C2.62819 5.0348 2.59823 5.1129 2.59966 5.19359C2.60108 5.27428 2.63377 5.35127 2.69084 5.40834C2.74791 5.46541 2.8249 5.4981 2.90559 5.49952C2.98628 5.50094 3.06438 5.47099 3.12342 5.41597L3.21479 5.32461V6.23411C3.21479 6.31672 3.2476 6.39594 3.30602 6.45435C3.36443 6.51277 3.44365 6.54558 3.52626 6.54558C3.60887 6.54558 3.68809 6.51277 3.74651 6.45435C3.80492 6.39594 3.83773 6.31672 3.83773 6.23411V4.57292Z" fill="#8A9099" style="fill:#8A9099;fill:color(display-p3 0.5412 0.5647 0.6000);fill-opacity:1;"/>
</svg>
