<svg width="13" height="13" viewBox="0 0 13 13" fill="none" xmlns="http://www.w3.org/2000/svg">
<path d="M11.8309 4.80606C11.6388 4.60574 11.4407 4.39887 11.3757 4.24222C11.3179 4.10248 11.3135 3.81483 11.3097 3.56156C11.3015 3.01573 11.2911 2.33671 10.8086 1.85474C10.3261 1.37277 9.6476 1.36349 9.10177 1.35367C8.8485 1.34985 8.56085 1.34548 8.42112 1.28762C8.26446 1.22267 8.05759 1.02453 7.85727 0.832396C7.47082 0.461775 6.9894 0 6.33167 0C5.67394 0 5.19251 0.461775 4.80606 0.832396C4.60574 1.02453 4.39887 1.22267 4.24222 1.28762C4.10248 1.34548 3.81483 1.34985 3.56156 1.35367C3.01573 1.36458 2.33671 1.37223 1.85583 1.85583C1.37495 2.33944 1.36458 3.01573 1.35367 3.56156C1.34985 3.81483 1.34548 4.10248 1.28762 4.24222C1.22267 4.39887 1.02453 4.60574 0.832396 4.80606C0.461775 5.19251 0 5.67667 0 6.33167C0 6.98667 0.461775 7.47082 0.832396 7.86C1.02453 8.06032 1.22267 8.26719 1.28762 8.42385C1.34548 8.56358 1.34985 8.85123 1.35367 9.1045C1.36185 9.65033 1.37222 10.3294 1.85474 10.8113C2.33726 11.2933 3.01573 11.3026 3.56156 11.3124C3.81483 11.3162 4.10248 11.3206 4.24222 11.3784C4.39887 11.4434 4.60574 11.6415 4.80606 11.8337C5.19251 12.2016 5.67667 12.6633 6.33167 12.6633C6.98667 12.6633 7.47082 12.2016 7.85727 11.8309C8.05759 11.6388 8.26446 11.4407 8.42112 11.3757C8.56085 11.3179 8.8485 11.3135 9.10177 11.3097C9.6476 11.3015 10.3266 11.2911 10.8086 10.8086C11.2906 10.3261 11.2998 9.6476 11.3097 9.10177C11.3135 8.8485 11.3179 8.56085 11.3757 8.42112C11.4407 8.26446 11.6388 8.05759 11.8309 7.85727C12.2016 7.47082 12.6633 6.9894 12.6633 6.33167C12.6633 5.67394 12.2016 5.19251 11.8309 4.80606ZM10.8856 6.95064C10.6225 7.22356 10.3244 7.53578 10.1656 7.92004C10.0117 8.29121 10.0057 8.69294 10.0019 9.08212C9.99748 9.37469 9.99148 9.77588 9.8845 9.88231C9.77751 9.98875 9.37687 9.9953 9.0843 9.99967C8.69512 10.0057 8.29339 10.0117 7.92222 10.1634C7.54014 10.3223 7.22738 10.6203 6.95283 10.8834C6.75633 11.0717 6.46267 11.3533 6.33167 11.3533C6.20067 11.3533 5.90701 11.0717 5.71269 10.8856C5.43977 10.6225 5.12756 10.3244 4.74329 10.1656C4.37213 10.0117 3.97039 10.0057 3.58121 10.0019C3.28865 9.99748 2.88746 9.99148 2.78102 9.8845C2.67458 9.77751 2.66803 9.37687 2.66367 9.0843C2.65766 8.69512 2.65166 8.29339 2.49992 7.92222C2.34108 7.54014 2.04305 7.22738 1.77996 6.95283C1.59165 6.75633 1.31 6.46267 1.31 6.33167C1.31 6.20067 1.59165 5.90701 1.77778 5.71269C2.04087 5.43977 2.3389 5.12756 2.49773 4.74329C2.65166 4.37213 2.65766 3.97039 2.66148 3.58121C2.66803 3.28865 2.67458 2.88746 2.78375 2.78375C2.89292 2.68004 3.29138 2.67076 3.58394 2.6664C3.97312 2.66039 4.37485 2.65439 4.74602 2.50265C5.1281 2.34381 5.44087 2.04578 5.71542 1.78269C5.90701 1.59165 6.20067 1.31 6.33167 1.31C6.46267 1.31 6.75632 1.59165 6.95064 1.77778C7.22356 2.04087 7.53578 2.3389 7.92004 2.49773C8.29121 2.65166 8.69294 2.65766 9.08212 2.66148C9.37469 2.66585 9.77588 2.67185 9.88231 2.77884C9.98875 2.88582 9.9953 3.28646 9.99967 3.57903C10.0057 3.96821 10.0117 4.36994 10.1634 4.74111C10.3223 5.12319 10.6203 5.43595 10.8834 5.71051C11.0695 5.90483 11.3512 6.19848 11.3512 6.32948C11.3512 6.46048 11.0717 6.75632 10.8856 6.95064ZM8.97841 4.55825C9.03948 4.61911 9.08793 4.69141 9.12099 4.77103C9.15404 4.85065 9.17106 4.93601 9.17106 5.02221C9.17106 5.10842 9.15404 5.19378 9.12099 5.2734C9.08793 5.35301 9.03948 5.42532 8.97841 5.48617L5.92175 8.54284C5.86089 8.6039 5.78859 8.65235 5.70897 8.68541C5.62935 8.71847 5.54399 8.73549 5.45779 8.73549C5.37158 8.73549 5.28622 8.71847 5.2066 8.68541C5.12699 8.65235 5.05468 8.6039 4.99383 8.54284L3.68383 7.23284C3.6229 7.17191 3.57457 7.09958 3.5416 7.01997C3.50862 6.94037 3.49165 6.85504 3.49165 6.76888C3.49165 6.68271 3.50862 6.59739 3.5416 6.51779C3.57457 6.43818 3.6229 6.36585 3.68383 6.30492C3.74476 6.24399 3.81709 6.19566 3.89669 6.16269C3.9763 6.12971 4.06162 6.11274 4.14779 6.11274C4.23395 6.11274 4.31927 6.12971 4.39888 6.16269C4.47849 6.19566 4.55082 6.24399 4.61175 6.30492L5.45833 7.15042L8.05159 4.55662C8.11253 4.49582 8.18485 4.44764 8.26443 4.41482C8.344 4.382 8.42926 4.36518 8.51534 4.36533C8.60142 4.36548 8.68662 4.3826 8.76608 4.4157C8.84553 4.44881 8.91769 4.49725 8.97841 4.55825Z" fill="#258A8D" style="fill:#258A8D;fill:color(display-p3 0.1451 0.5412 0.5529);fill-opacity:1;"/>
</svg>
