<svg width="20" height="16" viewBox="0 0 20 16" fill="none" xmlns="http://www.w3.org/2000/svg">
<path d="M13.4815 6.22349C13.8533 5.84147 13.845 5.23035 13.463 4.85853C13.081 4.48671 12.4698 4.49498 12.098 4.87701L8.95154 8.10983L7.60191 7.02793C7.18597 6.69449 6.57847 6.76138 6.24503 7.17733C5.91159 7.59328 5.97848 8.20078 6.39443 8.53422L8.77008 10.4386C8.96405 10.5941 9.24441 10.5768 9.41781 10.3986L13.4815 6.22349Z" fill="#E46A11" style="fill:#E46A11;fill:color(display-p3 0.8941 0.4157 0.0667);fill-opacity:1;"/>
<path fill-rule="evenodd" clip-rule="evenodd" d="M0 2.89578C0 1.29649 1.29649 0 2.89578 0H16.4094C18.0087 0 19.3052 1.29649 19.3052 2.89578V12.5484C19.3052 14.1477 18.0087 15.4442 16.4094 15.4442H2.89578C1.29649 15.4442 0 14.1477 0 12.5484V2.89578ZM15.6089 1.93052H16.4094C16.9425 1.93052 17.3747 2.36268 17.3747 2.89578V3.69627C16.5519 3.40545 15.8998 2.75332 15.6089 1.93052ZM13.6102 1.93052H5.69502C5.31115 3.82159 3.82159 5.31115 1.93052 5.69502V9.74915C3.82159 10.133 5.31115 11.6226 5.69502 13.5136H13.6102C13.9941 11.6226 15.4836 10.133 17.3747 9.74915V5.69502C15.4836 5.31115 13.9941 3.82159 13.6102 1.93052ZM17.3747 11.7479C16.5519 12.0387 15.8998 12.6908 15.6089 13.5136H16.4094C16.9425 13.5136 17.3747 13.0815 17.3747 12.5484V11.7479ZM3.69627 13.5136C3.40545 12.6908 2.75332 12.0387 1.93052 11.7479V12.5484C1.93052 13.0815 2.36268 13.5136 2.89578 13.5136H3.69627ZM1.93052 3.69627C2.75332 3.40545 3.40545 2.75332 3.69627 1.93052H2.89578C2.36268 1.93052 1.93052 2.36268 1.93052 2.89578V3.69627Z" fill="#E46A11" style="fill:#E46A11;fill:color(display-p3 0.8941 0.4157 0.0667);fill-opacity:1;"/>
</svg>
