<svg viewBox="0 0 37 37" fill="none" xmlns="http://www.w3.org/2000/svg">
<path d="M16.8867 11.0461C16.999 10.7016 17.2185 10.402 17.5131 10.191C17.8077 9.97997 18.162 9.86863 18.5243 9.87318C18.8867 9.87774 19.2381 9.99796 19.5273 10.2163C19.8165 10.4346 20.0284 10.7397 20.132 11.0869L21.3849 13.5553C21.5068 13.7953 21.684 14.0029 21.9018 14.161C22.1196 14.3191 22.3719 14.4232 22.6378 14.4648L25.4156 14.9C25.7733 14.9014 26.1214 15.0156 26.4105 15.2264C26.6995 15.4371 26.9147 15.7336 27.0254 16.0737C27.1362 16.4139 27.1368 16.7802 27.0272 17.1207C26.9177 17.4612 26.7035 17.7585 26.4152 17.9702L24.4228 19.9558C24.232 20.1458 24.0891 20.3782 24.0058 20.6342C23.9224 20.8901 23.901 21.1622 23.9434 21.428L24.3837 24.1701C24.5048 24.5138 24.5123 24.8873 24.405 25.2356C24.2978 25.5839 24.0815 25.8885 23.788 26.1044C23.4944 26.3204 23.1393 26.4364 22.7749 26.4352C22.4105 26.434 22.0561 26.3158 21.764 26.0979L19.2735 24.8229C19.0336 24.7 18.7679 24.6359 18.4983 24.6359C18.2287 24.6359 17.963 24.7 17.7231 24.8229L15.2326 26.0979C14.9405 26.314 14.5869 26.4308 14.2236 26.4312C13.8602 26.4316 13.5064 26.3156 13.2138 26.1002C12.9212 25.8848 12.7053 25.5814 12.5978 25.2343C12.4903 24.8873 12.4968 24.5149 12.6163 24.1718L13.0549 21.4297C13.0975 21.1637 13.0763 20.8912 12.9929 20.635C12.9096 20.3787 12.7665 20.1459 12.5755 19.9558L10.6103 17.9974C10.3122 17.7909 10.088 17.4945 9.97035 17.1515C9.85271 16.8085 9.84785 16.4368 9.95647 16.0908C10.0651 15.7449 10.2815 15.4427 10.5741 15.2284C10.8666 15.0142 11.2201 14.8991 11.5827 14.9L14.3588 14.4648C14.6247 14.4232 14.877 14.3191 15.0948 14.161C15.3126 14.0029 15.4898 13.7953 15.6117 13.5553L16.8867 11.0461Z" stroke="white" stroke-width="3" stroke-linecap="round" stroke-linejoin="round"/>
<path d="M18.5 35.5C27.8888 35.5 35.5 27.8888 35.5 18.5C35.5 9.11116 27.8888 1.5 18.5 1.5C9.11116 1.5 1.5 9.11116 1.5 18.5C1.5 27.8888 9.11116 35.5 18.5 35.5Z" stroke="white" stroke-width="3" stroke-linecap="round" stroke-linejoin="round"/>
</svg>
