<svg width="66" height="66" viewBox="0 0 66 66" fill="none" xmlns="http://www.w3.org/2000/svg">
<g opacity="0.9">
<path d="M32.6152 5.0957C56.3532 5.0957 71.1894 30.0993 59.3204 50.1022C56.614 54.6634 52.7212 58.451 48.0335 61.0844C43.3458 63.7178 38.0282 65.1043 32.6152 65.1044C8.87723 65.1044 -5.95901 40.1008 5.90998 20.0979C8.61647 15.5368 12.5092 11.7491 17.1969 9.11572C21.8847 6.48229 27.2022 5.09584 32.6152 5.0957Z" fill="#1E1E1E" style="fill:#1E1E1E;fill:color(display-p3 0.1176 0.1176 0.1176);fill-opacity:1;"/>
<path d="M16.7374 1.66575C17.1918 2.43146 17.3149 3.34142 17.0797 4.19545C16.8445 5.04948 16.2703 5.77764 15.4834 6.21975C11.9189 8.23128 8.75233 10.846 6.13277 13.9409C5.85184 14.2929 5.50122 14.5866 5.10164 14.8045C4.70205 15.0224 4.26161 15.1601 3.80637 15.2096C3.35112 15.259 2.89032 15.2191 2.45119 15.0922C2.01206 14.9654 1.60354 14.7542 1.24977 14.471C0.895999 14.1879 0.604168 13.8386 0.391532 13.4439C0.178896 13.0491 0.0497718 12.6169 0.0117956 12.1727C-0.0261806 11.7285 0.0277623 11.2815 0.170434 10.858C0.313105 10.4344 0.541608 10.043 0.842432 9.70692C3.97634 5.99083 7.77292 2.8547 12.0501 0.448911C12.4397 0.22936 12.87 0.086675 13.3163 0.0290098C13.7626 -0.0286553 14.2163 -0.000169145 14.6513 0.11284C15.0862 0.22585 15.4941 0.421167 15.8515 0.687625C16.2088 0.954084 16.5087 1.28646 16.734 1.66575H16.7374ZM53.1736 0.448911C57.4517 2.85338 61.2495 5.98838 64.3847 9.70359C64.9318 10.3891 65.1825 11.2553 65.0836 12.1179C64.9846 12.9805 64.5439 13.7715 63.8549 14.3229C63.166 14.8742 62.2832 15.1424 61.3942 15.0705C60.5053 14.9985 59.6802 14.5921 59.0944 13.9375C56.4798 10.8388 53.3122 8.22436 49.7438 6.21975C48.9573 5.77677 48.3838 5.04794 48.1496 4.19359C47.9154 3.33924 48.0396 2.42935 48.4949 1.66409C48.9501 0.898827 49.6992 0.34088 50.5773 0.112991C51.4553 -0.114899 52.3871 0.00593501 53.1736 0.448911ZM32.6153 18.4315C31.776 18.4316 30.966 18.7314 30.3389 19.274C29.7117 19.8166 29.3111 20.5643 29.2129 21.3753L29.1889 21.7653V35.0539C29.1786 35.794 29.4219 36.5208 29.881 37.1109L30.1894 37.4576L37.4054 44.4753C38.0205 45.0796 38.8498 45.4322 39.7235 45.4611C40.5971 45.4899 41.4491 45.1928 42.1049 44.6304C42.7608 44.0681 43.1709 43.2832 43.2515 42.4363C43.332 41.5893 43.0768 40.7445 42.5381 40.0747L42.2503 39.7613L36.0417 33.7204V21.7653C36.0417 20.8812 35.6807 20.0332 35.0381 19.408C34.3955 18.7828 33.524 18.4315 32.6153 18.4315Z" fill="white" style="fill:white;fill-opacity:1;"/>
</g>
</svg>
