<svg width="17" height="16" viewBox="0 0 17 16" fill="none" xmlns="http://www.w3.org/2000/svg">
<path fill-rule="evenodd" clip-rule="evenodd" d="M9.33061 0.504302C9.24029 0.350858 9.1109 0.223542 8.95535 0.135054C8.7998 0.0465665 8.62354 0 8.44414 0C8.26474 0 8.08847 0.0465665 7.93293 0.135054C7.77738 0.223542 7.64799 0.350858 7.55766 0.504302L5.26432 4.40214L0.808142 5.35852C0.632889 5.39622 0.470679 5.47874 0.337684 5.59784C0.204689 5.71695 0.105554 5.86849 0.050163 6.03735C-0.00522819 6.20621 -0.0149408 6.38649 0.0219934 6.56023C0.0589276 6.73396 0.141218 6.89508 0.260662 7.02751L3.29766 10.3923L2.83801 14.8817C2.81987 15.0585 2.8489 15.2369 2.92219 15.3991C2.99549 15.5613 3.11048 15.7016 3.25569 15.806C3.4009 15.9105 3.57125 15.9754 3.74972 15.9942C3.9282 16.0131 4.10855 15.9853 4.27278 15.9136L8.44414 14.0935L12.6155 15.9136C12.7797 15.9853 12.9601 16.0131 13.1386 15.9942C13.317 15.9754 13.4874 15.9105 13.6326 15.806C13.7778 15.7016 13.8928 15.5613 13.9661 15.3991C14.0394 15.2369 14.0684 15.0585 14.0503 14.8817L13.5906 10.3923L16.6276 7.02832C16.7473 6.8959 16.8297 6.73472 16.8668 6.56088C16.9038 6.38703 16.8942 6.20661 16.8388 6.03762C16.7834 5.86863 16.6841 5.71698 16.551 5.59782C16.4179 5.47865 16.2555 5.39614 16.0801 5.35852L11.6248 4.40295L9.33061 0.504302ZM8.44414 12.4123C8.58532 12.4123 8.7265 12.4408 8.85783 12.4985L12.3102 14.0049L11.9301 10.2891C11.9158 10.1487 11.9312 10.007 11.9753 9.87279C12.0194 9.73863 12.0912 9.61503 12.1862 9.50987L14.6995 6.72524L11.0125 5.93462C10.8732 5.90487 10.7417 5.84673 10.6264 5.76391C10.5111 5.68109 10.4145 5.57541 10.3427 5.45359L8.44414 2.22611V12.4123Z" fill="#FF8F34" style="fill:#FF8F34;fill:color(display-p3 1.0000 0.5608 0.2039);fill-opacity:1;"/>
</svg>
