<svg width="27" height="31" viewBox="0 0 27 31" fill="none" xmlns="http://www.w3.org/2000/svg">
<path d="M19.9182 6.78418C19.977 6.78426 20.0782 6.80869 20.1926 6.94141C20.3098 7.07741 20.4114 7.30347 20.4114 7.59375C20.4113 7.88404 20.3099 8.11012 20.1926 8.24609C20.0782 8.37876 19.977 8.40324 19.9182 8.40332C19.8595 8.40332 19.7574 8.37902 19.6428 8.24609C19.5256 8.11011 19.4241 7.88393 19.4241 7.59375C19.4241 7.30362 19.5257 7.07743 19.6428 6.94141C19.7574 6.80848 19.8595 6.78418 19.9182 6.78418Z" fill="white" stroke="#1E1E1E" style="fill:white;fill-opacity:1;stroke:#1E1E1E;stroke:color(display-p3 0.1176 0.1176 0.1176);stroke-opacity:1;" stroke-width="2.96296"/>
<path d="M18.6008 1.48242C22.2354 1.48242 25.1851 4.90346 25.1851 9.11867V21.3367C25.1851 25.5519 22.2354 28.9729 18.6008 28.9729H8.06581C4.43124 28.9729 1.48145 25.5519 1.48145 21.3367V9.11867C1.48145 4.90346 4.43124 1.48242 8.06581 1.48242H13.3333H18.6008Z" stroke="#1E1E1E" style="stroke:#1E1E1E;stroke:color(display-p3 0.1176 0.1176 0.1176);stroke-opacity:1;" stroke-width="2.96296" stroke-linecap="round" stroke-linejoin="round"/>
<path d="M13.3329 9.11719C16.2432 9.11719 18.6004 11.851 18.6004 15.2262C18.6004 18.6014 16.2432 21.3352 13.3329 21.3352C10.4226 21.3352 8.06543 18.6014 8.06543 15.2262C8.06543 11.851 10.4226 9.11719 13.3329 9.11719Z" stroke="#1E1E1E" style="stroke:#1E1E1E;stroke:color(display-p3 0.1176 0.1176 0.1176);stroke-opacity:1;" stroke-width="2.96296" stroke-linecap="round" stroke-linejoin="round"/>
</svg>
