<svg width="24" height="24" viewBox="0 0 24 24" fill="none" xmlns="http://www.w3.org/2000/svg">
<path d="M22.0451 1.84018e-05H1.72754C1.50038 -0.00103245 1.27527 0.0429339 1.0652 0.129378C0.855136 0.215821 0.664279 0.343029 0.503654 0.503654C0.343029 0.664279 0.215821 0.855136 0.129378 1.0652C0.0429339 1.27527 -0.00103245 1.50038 1.84018e-05 1.72754V22.0821C1.84018e-05 23.0027 0.767217 23.8096 1.72754 23.8096H21.9657C22.193 23.8108 22.4182 23.767 22.6284 23.6806C22.8387 23.5943 23.0297 23.4671 23.1904 23.3065C23.3512 23.1458 23.4785 22.9549 23.5651 22.7447C23.6516 22.5346 23.6956 22.3094 23.6945 22.0821V1.68918C23.7726 0.768539 23.0041 1.84018e-05 22.0451 1.84018e-05ZM7.02782 20.2382H3.53442V8.90878H7.02914L7.02782 20.2382ZM5.26194 7.3347C4.99428 7.3361 4.72899 7.2844 4.48144 7.18257C4.2339 7.08075 4.00901 6.93083 3.8198 6.7415C3.63059 6.55217 3.48082 6.32718 3.37916 6.07957C3.2775 5.83196 3.22596 5.56664 3.22754 5.29898C3.22754 4.18654 4.14818 3.26458 5.26194 3.26458C6.3757 3.26458 7.29898 4.18654 7.29898 5.29898C7.29898 6.41141 6.45242 7.3347 5.26194 7.3347ZM20.2779 20.2382H16.7831V14.7461C16.7831 13.4405 16.7448 11.713 14.9405 11.713C13.0966 11.713 12.8281 13.172 12.8281 14.631V20.2382H9.33338V8.90878H12.7514V10.4829H12.7897C13.2884 9.56222 14.4035 8.64026 16.131 8.64026C19.7025 8.64026 20.3546 10.9445 20.3546 14.094V20.2382H20.2779Z" fill="#1E1E1E" style="fill:#1E1E1E;fill:color(display-p3 0.1176 0.1176 0.1176);fill-opacity:1;"/>
</svg>
