<svg width="66" height="72" viewBox="0 0 66 72" fill="none" xmlns="http://www.w3.org/2000/svg">
<path opacity="0.9" d="M13.9512 13.9273C13.9512 10.2336 15.4211 6.6911 18.0375 4.07922C20.6538 1.46734 24.2024 0 27.9025 0C31.6026 0 35.1511 1.46734 37.7675 4.07922C40.3838 6.6911 41.8537 10.2336 41.8537 13.9273V16.2485H44.1789C46.9554 16.2483 49.6403 17.2401 51.748 19.0444C53.8557 20.8487 55.2469 23.3465 55.6701 26.0859C52.7169 25.3474 49.6274 25.3437 46.6725 26.0753C43.7177 26.8068 40.9878 28.2511 38.7226 30.2815C36.4573 32.3119 34.7258 34.8663 33.6801 37.7205C32.6344 40.5748 32.3064 43.6416 32.7249 46.6519L21.3268 58.0305C20.0525 59.3013 19.1753 60.914 18.8016 62.673H11.626C8.54261 62.673 5.58549 61.4502 3.40518 59.2736C1.22488 57.097 0 54.145 0 51.0669V27.8547C0 24.7765 1.22488 21.8245 3.40518 19.6479C5.58549 17.4713 8.54261 16.2485 11.626 16.2485H13.9512V13.9273ZM27.9025 4.64244C25.4357 4.64244 23.07 5.62067 21.3258 7.36192C19.5815 9.10317 18.6016 11.4648 18.6016 13.9273V16.2485H37.2033V13.9273C37.2033 11.4648 36.2234 9.10317 34.4791 7.36192C32.7349 5.62067 30.3692 4.64244 27.9025 4.64244ZM27.9025 44.1032C29.1358 44.1032 30.3187 43.6141 31.1908 42.7435C32.0629 41.8728 32.5529 40.692 32.5529 39.4608C32.5529 38.2295 32.0629 37.0487 31.1908 36.1781C30.3187 35.3074 29.1358 34.8183 27.9025 34.8183C26.6691 34.8183 25.4862 35.3074 24.6141 36.1781C23.742 37.0487 23.2521 38.2295 23.2521 39.4608C23.2521 40.692 23.742 41.8728 24.6141 42.7435C25.4862 43.6141 26.6691 44.1032 27.9025 44.1032ZM51.1545 58.0305C54.089 58.0303 56.9487 57.1064 59.3269 55.3901C61.7051 53.6739 63.4806 51.2527 64.4009 48.471C65.3212 45.6894 65.3394 42.6888 64.453 39.8962C63.5666 37.1036 61.8206 34.6611 59.4635 32.9161C57.1064 31.1712 54.2581 30.2127 51.3238 30.1769C48.3896 30.1411 45.5187 31.0299 43.1196 32.7169C40.7205 34.4038 38.9153 36.803 37.9608 39.5732C37.0064 42.3434 36.9512 45.3435 37.8032 48.1468L24.6146 61.3127C23.7424 62.1832 23.2523 63.3638 23.2521 64.5949V69.6366C23.2521 70.2523 23.497 70.8427 23.9331 71.278C24.3692 71.7133 24.9606 71.9578 25.5773 71.9578H34.8781C35.4948 71.9578 36.0862 71.7133 36.5223 71.278C36.9583 70.8427 37.2033 70.2523 37.2033 69.6366V67.3154H39.5285C40.1452 67.3154 40.7366 67.0709 41.1727 66.6355C41.6087 66.2002 41.8537 65.6098 41.8537 64.9942V62.673H44.1789C44.7956 62.673 45.387 62.4284 45.8231 61.9931C46.2591 61.5578 46.5041 60.9674 46.5041 60.3517V57.2413C47.9597 57.752 49.5269 58.0305 51.1545 58.0305ZM54.6423 37.1395C55.5673 37.1395 56.4545 37.5064 57.1086 38.1593C57.7627 38.8123 58.1301 39.6979 58.1301 40.6214C58.1301 41.5448 57.7627 42.4304 57.1086 43.0834C56.4545 43.7364 55.5673 44.1032 54.6423 44.1032C53.7173 44.1032 52.8302 43.7364 52.1761 43.0834C51.522 42.4304 51.1545 41.5448 51.1545 40.6214C51.1545 39.6979 51.522 38.8123 52.1761 38.1593C52.8302 37.5064 53.7173 37.1395 54.6423 37.1395Z" fill="#1E1E1E" style="fill:#1E1E1E;fill:color(display-p3 0.1176 0.1176 0.1176);fill-opacity:1;"/>
</svg>
