<svg width="156" height="32" viewBox="0 0 156 32" fill="none" xmlns="http://www.w3.org/2000/svg">
<path d="M-2.22176e-05 3.75426V-0.000710964H19.7287V3.75426H12.0859V24.7266H7.64273V3.75426H-2.22176e-05ZM26.152 25.1009C24.9768 25.1009 23.9183 24.8916 22.9765 24.473C22.0428 24.0464 21.3023 23.4186 20.7549 22.5895C20.2157 21.7604 19.946 20.7382 19.946 19.5227C19.946 18.4763 20.1392 17.611 20.5255 16.9268C20.9119 16.2427 21.4391 15.6953 22.1072 15.2848C22.7753 14.8743 23.5279 14.5644 24.365 14.3551C25.2102 14.1378 26.0835 13.9808 26.9851 13.8842C28.0717 13.7715 28.9531 13.6709 29.6292 13.5824C30.3054 13.4858 30.7964 13.3409 31.1023 13.1477C31.4162 12.9465 31.5731 12.6366 31.5731 12.218V12.1456C31.5731 11.236 31.3035 10.5317 30.7642 10.0327C30.2249 9.53362 29.4481 9.28409 28.4339 9.28409C27.3634 9.28409 26.5142 9.51752 25.8863 9.98438C25.2666 10.4512 24.848 11.0026 24.6307 11.6385L20.5497 11.0589C20.8717 9.93205 21.4029 8.99029 22.1434 8.23366C22.884 7.46899 23.7895 6.89749 24.8601 6.51918C25.9306 6.13281 27.1139 5.93963 28.4098 5.93963C29.3032 5.93963 30.1927 6.04427 31.0781 6.25355C31.9635 6.46283 32.7725 6.80895 33.505 7.2919C34.2374 7.76681 34.825 8.41477 35.2677 9.23579C35.7185 10.0568 35.9439 11.0831 35.9439 12.3146V24.7266H31.7422V22.179H31.5973C31.3317 22.6941 30.9574 23.1771 30.4744 23.6278C29.9995 24.0705 29.3998 24.4287 28.6754 24.7024C27.959 24.968 27.1179 25.1009 26.152 25.1009ZM27.2869 21.8892C28.1643 21.8892 28.9249 21.7161 29.5689 21.37C30.2128 21.0159 30.7078 20.549 31.054 19.9695C31.4081 19.3899 31.5852 18.758 31.5852 18.0739V15.8885C31.4484 16.0012 31.2149 16.1058 30.8849 16.2024C30.563 16.299 30.2007 16.3835 29.7983 16.456C29.3958 16.5284 28.9974 16.5928 28.603 16.6491C28.2085 16.7055 27.8665 16.7538 27.5767 16.794C26.9247 16.8826 26.3411 17.0275 25.826 17.2287C25.3108 17.4299 24.9043 17.7116 24.6065 18.0739C24.3087 18.428 24.1598 18.8868 24.1598 19.4503C24.1598 20.2552 24.4536 20.8629 25.0412 21.2734C25.6288 21.6839 26.3773 21.8892 27.2869 21.8892ZM42.3913 31.6811C41.7957 31.6811 41.2443 31.6328 40.7372 31.5362C40.2381 31.4477 39.8397 31.343 39.5419 31.2223L40.5561 27.8175C41.192 28.0026 41.7594 28.0911 42.2585 28.0831C42.7576 28.075 43.1962 27.9181 43.5746 27.6122C43.9609 27.3144 44.2869 26.8153 44.5525 26.1151L44.9268 25.1129L38.2017 6.18111H42.838L47.1122 20.1868H47.3054L51.5916 6.18111H56.24L48.8146 26.9723C48.4685 27.9543 48.0097 28.7955 47.4382 29.4957C46.8667 30.2041 46.1664 30.7434 45.3373 31.1136C44.5163 31.492 43.5343 31.6811 42.3913 31.6811ZM61.9812 31.6811C61.3855 31.6811 60.8341 31.6328 60.327 31.5362C59.828 31.4477 59.4295 31.343 59.1317 31.2223L60.1459 27.8175C60.7818 28.0026 61.3493 28.0911 61.8483 28.0831C62.3474 28.075 62.7861 27.9181 63.1644 27.6122C63.5508 27.3144 63.8768 26.8153 64.1424 26.1151L64.5167 25.1129L57.7915 6.18111H62.4279L66.702 20.1868H66.8952L71.1814 6.18111H75.8299L68.4045 26.9723C68.0583 27.9543 67.5995 28.7955 67.028 29.4957C66.4565 30.2041 65.7563 30.7434 64.9272 31.1136C64.1062 31.492 63.1241 31.6811 61.9812 31.6811ZM86.313 25.0888C84.5019 25.0888 82.9323 24.6903 81.6042 23.8935C80.2761 23.0966 79.2458 21.9818 78.5133 20.549C77.7889 19.1162 77.4266 17.442 77.4266 15.5263C77.4266 13.6106 77.7889 11.9323 78.5133 10.4915C79.2458 9.05066 80.2761 7.93182 81.6042 7.13494C82.9323 6.33807 84.5019 5.93963 86.313 5.93963C88.1241 5.93963 89.6937 6.33807 91.0218 7.13494C92.3499 7.93182 93.3762 9.05066 94.1007 10.4915C94.8331 11.9323 95.1994 13.6106 95.1994 15.5263C95.1994 17.442 94.8331 19.1162 94.1007 20.549C93.3762 21.9818 92.3499 23.0966 91.0218 23.8935C89.6937 24.6903 88.1241 25.0888 86.313 25.0888ZM86.3372 21.5874C87.3192 21.5874 88.1402 21.3177 88.8002 20.7784C89.4603 20.2311 89.9513 19.4986 90.2732 18.581C90.6033 17.6634 90.7683 16.6411 90.7683 15.5142C90.7683 14.3793 90.6033 13.353 90.2732 12.4354C89.9513 11.5097 89.4603 10.7732 88.8002 10.2259C88.1402 9.6785 87.3192 9.40483 86.3372 9.40483C85.331 9.40483 84.4939 9.6785 83.8258 10.2259C83.1658 10.7732 82.6707 11.5097 82.3407 12.4354C82.0187 13.353 81.8578 14.3793 81.8578 15.5142C81.8578 16.6411 82.0187 17.6634 82.3407 18.581C82.6707 19.4986 83.1658 20.2311 83.8258 20.7784C84.4939 21.3177 85.331 21.5874 86.3372 21.5874ZM98.9091 24.7266V6.18111H103.147V9.27202H103.34C103.678 8.20147 104.258 7.37642 105.079 6.79688C105.908 6.20928 106.854 5.91548 107.916 5.91548C108.158 5.91548 108.427 5.92756 108.725 5.9517C109.031 5.9678 109.285 5.99597 109.486 6.03622V10.0568C109.301 9.99242 109.007 9.93608 108.604 9.88778C108.21 9.83144 107.828 9.80327 107.457 9.80327C106.66 9.80327 105.944 9.97633 105.308 10.3224C104.68 10.6605 104.185 11.1314 103.823 11.7351C103.461 12.3388 103.28 13.035 103.28 13.8239V24.7266H98.9091ZM112.957 24.9922C112.225 24.9922 111.597 24.7346 111.073 24.2195C110.55 23.7043 110.293 23.0765 110.301 22.3359C110.293 21.6115 110.55 20.9917 111.073 20.4766C111.597 19.9614 112.225 19.7038 112.957 19.7038C113.665 19.7038 114.281 19.9614 114.804 20.4766C115.336 20.9917 115.605 21.6115 115.613 22.3359C115.605 22.8269 115.476 23.2737 115.227 23.6761C114.985 24.0786 114.663 24.4006 114.261 24.642C113.867 24.8755 113.432 24.9922 112.957 24.9922Z" fill="#222222" style="fill:#222222;fill:color(display-p3 0.1333 0.1333 0.1333);fill-opacity:1;"/>
<path d="M131.946 16.9268V6.18111H136.317V24.7266H132.079V21.4304H131.886C131.467 22.4687 130.779 23.3179 129.821 23.978C128.871 24.638 127.7 24.968 126.308 24.968C125.092 24.968 124.018 24.6984 123.084 24.1591C122.158 23.6117 121.434 22.8189 120.911 21.7805C120.387 20.7341 120.126 19.4704 120.126 17.9893V6.18111H124.497V17.3132C124.497 18.4884 124.819 19.4221 125.463 20.1143C126.106 20.8066 126.952 21.1527 127.998 21.1527C128.642 21.1527 129.266 20.9957 129.869 20.6818C130.473 20.3679 130.968 19.901 131.355 19.2812C131.749 18.6534 131.946 17.8686 131.946 16.9268ZM140.57 24.7266V21.9496L150.132 9.96023V9.80327H140.884V6.18111H155.481V9.16335L146.377 20.9474V21.1044H155.795V24.7266H140.57Z" fill="#258A8D" style="fill:#258A8D;fill:color(display-p3 0.1451 0.5412 0.5529);fill-opacity:1;"/>
</svg>
