<svg width="19" height="17" viewBox="0 0 19 17" fill="none" xmlns="http://www.w3.org/2000/svg">
<path d="M7.31678 11.4735C10.5619 11.4735 13.1923 9.06379 13.1923 6.09028C13.1923 3.11677 10.5619 0.707031 7.31678 0.707031C4.07265 0.707031 1.4422 3.11677 1.4422 6.09028C1.4422 6.89091 1.63236 7.65044 1.97425 8.33362L0.70752 11.4735L4.37997 10.7531C5.28764 11.231 6.29519 11.4781 7.31678 11.4735Z" stroke="#258A8D" style="stroke:#258A8D;stroke:color(display-p3 0.1451 0.5412 0.5529);stroke-opacity:1;" stroke-width="1.41513" stroke-linejoin="round"/>
<path d="M8.20312 14.5325C9.1714 15.099 10.2693 15.3948 11.3858 15.3899C12.4077 15.3947 13.4156 15.1475 14.3236 14.6696L17.9951 15.3899L16.7274 12.25C17.078 11.5563 17.2607 10.7871 17.2604 10.0067C17.2604 8.78811 16.8186 7.66448 16.0743 6.76206C15.355 5.89095 14.3533 5.22636 13.1932 4.88281" stroke="#258A8D" style="stroke:#258A8D;stroke:color(display-p3 0.1451 0.5412 0.5529);stroke-opacity:1;" stroke-width="1.41513" stroke-linecap="round" stroke-linejoin="round"/>
<path d="M10.3106 7.07083C9.78023 7.07083 9.35026 6.63261 9.35026 6.09205C9.35026 5.55149 9.78023 5.11328 10.3106 5.11328C10.841 5.11328 11.271 5.55149 11.271 6.09205C11.271 6.63261 10.841 7.07083 10.3106 7.07083Z" fill="#258A8D" style="fill:#258A8D;fill:color(display-p3 0.1451 0.5412 0.5529);fill-opacity:1;"/>
<path d="M7.42879 7.07083C6.89839 7.07083 6.46842 6.63261 6.46842 6.09205C6.46842 5.55149 6.89839 5.11328 7.42879 5.11328C7.95919 5.11328 8.38916 5.55149 8.38916 6.09205C8.38916 6.63261 7.95919 7.07083 7.42879 7.07083Z" fill="#258A8D" style="fill:#258A8D;fill:color(display-p3 0.1451 0.5412 0.5529);fill-opacity:1;"/>
<path d="M4.54793 7.07083C4.01753 7.07083 3.58756 6.63261 3.58756 6.09205C3.58756 5.55149 4.01753 5.11328 4.54793 5.11328C5.07833 5.11328 5.5083 5.55149 5.5083 6.09205C5.5083 6.63261 5.07833 7.07083 4.54793 7.07083Z" fill="#258A8D" style="fill:#258A8D;fill:color(display-p3 0.1451 0.5412 0.5529);fill-opacity:1;"/>
</svg>
