<svg width="12" height="12" viewBox="0 0 12 12" fill="none" xmlns="http://www.w3.org/2000/svg">
<path fill-rule="evenodd" clip-rule="evenodd" d="M5.568 1.28591C5.0195 1.28592 4.48794 1.47593 4.06372 1.82362C3.6395 2.17131 3.34881 2.65521 3.24109 3.19302L2.71076 5.8455C2.55282 6.63748 2.16376 7.36492 1.59271 7.93596L1.4265 8.10131C1.36501 8.16249 1.32105 8.23905 1.29921 8.323C1.27737 8.40695 1.27846 8.49522 1.30234 8.57861C1.32623 8.66201 1.37205 8.73746 1.43503 8.79712C1.49801 8.85677 1.57583 8.89844 1.66039 8.91778L2.36378 9.08057C4.47211 9.56811 6.66389 9.56811 8.77222 9.08057L9.47475 8.91778C9.55921 8.89831 9.63693 8.8566 9.69983 8.79697C9.76274 8.73733 9.80854 8.66196 9.83249 8.57865C9.85644 8.49535 9.85767 8.40716 9.83604 8.32322C9.81441 8.23929 9.77072 8.16267 9.7095 8.10131L9.54329 7.93596C8.97224 7.36492 8.58319 6.63748 8.42524 5.8455L8.36698 5.55678C8.33347 5.38966 8.36771 5.21607 8.46219 5.07419C8.55666 4.93232 8.70363 4.83379 8.87075 4.80028C9.03787 4.76676 9.21146 4.80101 9.35333 4.89548C9.49521 4.98995 9.59374 5.13692 9.62725 5.30404L9.68551 5.59362C9.79346 6.1368 10.0608 6.63542 10.4523 7.02695L10.6185 7.19316C10.8422 7.41659 11.0019 7.69585 11.0811 8.0019C11.1603 8.30795 11.1561 8.62963 11.0689 8.93351C10.9817 9.23738 10.8147 9.51236 10.5853 9.72987C10.3559 9.94738 10.0724 10.0995 9.76433 10.1703L9.06094 10.3331C8.45951 10.4702 7.85408 10.5724 7.24465 10.6398C7.16319 11.024 6.95223 11.3686 6.64709 11.6158C6.34195 11.863 5.96115 11.9979 5.56843 11.9979C5.17571 11.9979 4.79491 11.863 4.48977 11.6158C4.18463 11.3686 3.97367 11.024 3.89221 10.6398C3.28119 10.5736 2.67468 10.4709 2.07591 10.3323L1.37167 10.1695C1.06392 10.0983 0.780819 9.94605 0.551716 9.72858C0.322613 9.51111 0.155848 9.23631 0.0687112 8.93269C-0.018426 8.62906 -0.0227636 8.30766 0.0561478 8.00179C0.135059 7.69593 0.294347 7.41673 0.517498 7.19316L0.684563 7.02609C1.07609 6.63456 1.3434 6.13508 1.45135 5.59276L1.98253 2.94028C2.08229 2.44188 2.28482 1.96974 2.5772 1.55396C2.86958 1.13818 3.24539 0.787896 3.68067 0.525436C4.11596 0.262976 4.60116 0.0941041 5.10533 0.0295885C5.60951 -0.0349272 6.1216 0.00632941 6.60894 0.150727C6.68984 0.174748 6.76521 0.214467 6.83075 0.267616C6.8963 0.320765 6.95073 0.386304 6.99095 0.46049C7.03116 0.534676 7.05637 0.616056 7.06514 0.699985C7.0739 0.783914 7.06605 0.868747 7.04203 0.949641C7.01801 1.03053 6.97829 1.10591 6.92514 1.17145C6.87199 1.23699 6.80645 1.29143 6.73227 1.33164C6.65808 1.37186 6.5767 1.39707 6.49277 1.40583C6.40884 1.4146 6.32401 1.40675 6.24312 1.38272C6.02384 1.31847 5.7965 1.28587 5.568 1.28591Z" fill="#6D7498" style="fill:#6D7498;fill:color(display-p3 0.4275 0.4549 0.5961);fill-opacity:1;"/>
</svg>
