<svg width="14" height="14" viewBox="0 0 14 14" fill="none" xmlns="http://www.w3.org/2000/svg">
<path d="M1.04243 11.1222H7.29893C7.56313 11.1223 7.81744 11.2226 8.01049 11.403C8.20354 11.5834 8.32093 11.8303 8.33894 12.0939C8.35694 12.3575 8.27423 12.6181 8.1075 12.8231C7.94078 13.0281 7.70248 13.1621 7.44074 13.1981L7.29893 13.2078H1.04243C0.778236 13.2078 0.52392 13.1074 0.330871 12.927C0.137822 12.7466 0.0204342 12.4997 0.00242667 12.2361C-0.0155809 11.9725 0.0671344 11.7119 0.233859 11.5069C0.400584 11.302 0.638888 11.1679 0.900618 11.1319L1.04243 11.1222ZM3.08622 3.0854C3.26295 2.909 3.49711 2.80187 3.74613 2.7835C3.99514 2.76513 4.24249 2.83673 4.44319 2.98529L4.55998 3.08679L9.42614 7.95335C9.611 8.13967 9.7188 8.38885 9.72803 8.65116C9.73727 8.91347 9.64726 9.16962 9.47597 9.36848C9.30468 9.56734 9.0647 9.69429 8.80394 9.724C8.54317 9.7537 8.2808 9.68397 8.06918 9.52873L7.95239 9.42722L3.08622 4.56066C2.89095 4.36513 2.78127 4.10008 2.78127 3.82373C2.78127 3.54737 2.89095 3.28093 3.08622 3.0854ZM12.1651 0C12.4171 1.0627e-05 12.6605 0.0912725 12.8504 0.256909C13.0403 0.422545 13.1638 0.651349 13.1981 0.901009L13.2078 1.04283V7.29984C13.2078 7.56406 13.1074 7.8184 12.927 8.01146C12.7467 8.20452 12.4998 8.32192 12.2362 8.33993C11.9726 8.35794 11.712 8.27522 11.5071 8.10848C11.3021 7.94174 11.1681 7.70342 11.1321 7.44167L11.1223 7.29984V1.04283C11.1223 0.766258 11.2322 0.501008 11.4278 0.305439C11.6233 0.10987 11.8885 0 12.1651 0Z" fill="#258A8D" style="fill:#258A8D;fill:color(display-p3 0.1451 0.5412 0.5529);fill-opacity:1;"/>
</svg>
