<svg width="13" height="13" viewBox="0 0 13 13" fill="none" xmlns="http://www.w3.org/2000/svg">
<path d="M9.65683 11.3574L11.7079 9.35102L11.2558 8.90108L9.65683 10.4676L8.96711 9.76794L8.51428 10.2215L9.65683 11.3574ZM2.00056 3.39495H9.55644V2.67736H1.99983L2.00056 3.39495ZM10.1111 13C9.30655 13 8.62405 12.7213 8.06361 12.164C7.50268 11.6071 7.22222 10.929 7.22222 10.1296C7.22222 9.3302 7.50268 8.65184 8.06361 8.0945C8.62454 7.53717 9.30704 7.25874 10.1111 7.25922C10.9152 7.2597 11.5979 7.53812 12.1593 8.0945C12.7207 8.65088 13.001 9.32925 13 10.1296C13 10.9285 12.7198 11.6067 12.1593 12.164C11.5979 12.7213 10.9152 13 10.1111 13ZM0 12.0334V1.15964C0 0.838154 0.11363 0.56451 0.340889 0.338706C0.568148 0.112902 0.843556 0 1.16711 0H10.3892C10.7118 0 10.9869 0.112902 11.2147 0.338706C11.4419 0.56451 11.5556 0.838154 11.5556 1.15964V5.42504C11.4381 5.38198 11.3216 5.34515 11.206 5.31453C11.09 5.28391 10.9657 5.25999 10.8333 5.24277V1.15964C10.8333 1.04913 10.7871 0.947707 10.6947 0.855376C10.6022 0.763045 10.5001 0.717119 10.3884 0.717598H1.16711C1.05589 0.717598 0.953815 0.763524 0.860889 0.855376C0.767963 0.947229 0.721741 1.04865 0.722222 1.15964V10.7998H5.304C5.33674 10.996 5.37911 11.1878 5.43111 11.3754C5.48359 11.5629 5.55654 11.7418 5.64994 11.9121L5.62539 11.9365L4.80567 11.3438L3.83355 12.0334L2.86144 11.3438L1.88933 12.0334L0.9165 11.3438L0 12.0334ZM2.00056 8.80421H5.4015C5.42846 8.67265 5.46168 8.54946 5.50117 8.43464C5.54065 8.31983 5.58687 8.20382 5.63983 8.08661H2.00056V8.80421ZM2.00056 6.09958H7.28C7.51592 5.91444 7.7687 5.76016 8.03833 5.63673C8.30796 5.51282 8.59613 5.42791 8.90283 5.38198H1.99983L2.00056 6.09958Z" fill="#6D7498" style="fill:#6D7498;fill:color(display-p3 0.4275 0.4549 0.5961);fill-opacity:1;"/>
</svg>
