<svg width="21" height="21" viewBox="0 0 21 21" fill="none" xmlns="http://www.w3.org/2000/svg">
<path d="M18.4395 5.4414C18.918 4.96301 19.1869 4.31412 19.187 3.63749C19.187 2.96086 18.9183 2.31191 18.4399 1.8334C17.9615 1.35489 17.3127 1.08602 16.636 1.08594C15.9594 1.08585 15.3105 1.35456 14.8319 1.83295L2.75311 13.9145C2.54297 14.124 2.38757 14.382 2.30058 14.6657L1.10501 18.6045C1.08162 18.6828 1.07985 18.7659 1.09989 18.8451C1.11994 18.9243 1.16105 18.9966 1.21886 19.0543C1.27667 19.112 1.34903 19.153 1.42825 19.1729C1.50748 19.1928 1.59062 19.1909 1.66885 19.1674L5.60855 17.9728C5.89198 17.8866 6.14993 17.7321 6.35974 17.5229L18.4395 5.4414Z" stroke="white" stroke-width="2.17211" stroke-linecap="round" stroke-linejoin="round"/>
</svg>
