<svg width="22" height="22" viewBox="0 0 22 22" fill="none" xmlns="http://www.w3.org/2000/svg">
<path fill-rule="evenodd" clip-rule="evenodd" d="M2.61788 0H6.36888C6.52144 0 6.67036 0.046521 6.79579 0.133356C6.92122 0.220191 7.01718 0.34321 7.07088 0.486L8.52688 4.356C8.57487 4.48398 8.58698 4.62264 8.56188 4.757L7.83188 8.669C8.72888 10.777 10.2099 12.194 12.6649 13.465L16.5299 12.715C16.6672 12.6885 16.8092 12.701 16.9399 12.751L20.8219 14.231C20.9638 14.2851 21.086 14.3809 21.1722 14.5059C21.2584 14.6309 21.3047 14.7791 21.3049 14.931V18.515C21.3049 20.141 19.8729 21.46 18.1969 21.095C15.1439 20.431 9.48688 18.742 5.52488 14.78C1.72888 10.985 0.456884 5.743 0.0298836 2.91C-0.215116 1.292 1.08188 0 2.61788 0Z" fill="#258A8D" style="fill:#258A8D;fill:color(display-p3 0.1451 0.5412 0.5529);fill-opacity:1;"/>
</svg>
