<svg width="17" height="17" viewBox="0 0 17 17" fill="none" xmlns="http://www.w3.org/2000/svg">
<path d="M8.12232 13.3113C8.40803 13.3113 8.64966 13.2106 8.84721 13.0093C9.04475 12.808 9.14326 12.562 9.14271 12.2713C9.14217 11.9807 9.04367 11.7345 8.84721 11.5326C8.65075 11.3307 8.40912 11.2303 8.12232 11.2314C7.83552 11.2325 7.59417 11.3332 7.39825 11.5334C7.20234 11.7336 7.10356 11.9796 7.10193 12.2713C7.1003 12.5631 7.19907 12.8093 7.39825 13.0101C7.59743 13.2109 7.83879 13.3113 8.12232 13.3113ZM7.38764 10.1083H8.89782C8.89782 9.65068 8.94897 9.29017 9.05129 9.02672C9.1536 8.76327 9.44257 8.40275 9.91821 7.94518C10.2719 7.58466 10.5509 7.24134 10.7549 6.91522C10.959 6.58909 11.061 6.19752 11.061 5.7405C11.061 4.964 10.7821 4.36777 10.2243 3.95179C9.66651 3.53581 9.00666 3.32783 8.24477 3.32783C7.46927 3.32783 6.84016 3.53581 6.35745 3.95179C5.87474 4.36777 5.53787 4.86694 5.34686 5.44931L6.69377 5.99008C6.7618 5.7405 6.91499 5.47011 7.15336 5.17893C7.39172 4.88774 7.75552 4.74215 8.24477 4.74215C8.68014 4.74215 9.00666 4.86361 9.22434 5.10655C9.44203 5.34948 9.55087 5.61626 9.55087 5.90689C9.55087 6.18421 9.46924 6.44433 9.30597 6.68726C9.14271 6.93019 8.93863 7.15537 8.69374 7.36281C8.09511 7.90358 7.72777 8.31262 7.59172 8.58994C7.45566 8.86726 7.38764 9.37337 7.38764 10.1083ZM8.16314 16.6391C7.0339 16.6391 5.9727 16.4209 4.97951 15.9844C3.98633 15.5479 3.1224 14.955 2.38772 14.2056C1.65304 13.4563 1.07155 12.5758 0.643256 11.5642C0.214964 10.5525 0.000545242 9.47098 1.03331e-06 8.31956C-0.000543176 7.16813 0.213875 6.08659 0.643256 5.07493C1.07264 4.06327 1.65412 3.18279 2.38772 2.43347C3.12131 1.68416 3.98524 1.09153 4.97951 0.655585C5.97378 0.21964 7.03499 0.00111348 8.16314 4.20179e-06C9.29128 -0.00110507 10.3525 0.217422 11.3468 0.655585C12.341 1.09375 13.205 1.68638 13.9386 2.43347C14.6721 3.18057 15.2539 4.06106 15.6838 5.07493C16.1138 6.08881 16.3279 7.17035 16.3263 8.31956C16.3246 9.46876 16.1102 10.5503 15.683 11.5642C15.2558 12.5781 14.6743 13.4585 13.9386 14.2056C13.2028 14.9527 12.3389 15.5456 11.3468 15.9844C10.3547 16.4231 9.29346 16.6413 8.16314 16.6391ZM8.16314 14.9752C9.98624 14.9752 11.5304 14.3304 12.7957 13.0409C14.061 11.7514 14.6936 10.1776 14.6936 8.31956C14.6936 6.46152 14.061 4.88774 12.7957 3.59821C11.5304 2.30868 9.98624 1.66391 8.16314 1.66391C6.34004 1.66391 4.79584 2.30868 3.53056 3.59821C2.26527 4.88774 1.63263 6.46152 1.63263 8.31956C1.63263 10.1776 2.26527 11.7514 3.53056 13.0409C4.79584 14.3304 6.34004 14.9752 8.16314 14.9752Z" fill="#258A8D" style="fill:#258A8D;fill:color(display-p3 0.1451 0.5412 0.5529);fill-opacity:1;"/>
</svg>
