<svg width="12" height="13" viewBox="0 0 12 13" fill="none" xmlns="http://www.w3.org/2000/svg">
<path fill-rule="evenodd" clip-rule="evenodd" d="M6.35294 1.3V0H7.83353V1.57039C8.08183 1.69609 8.31951 1.84263 8.54414 2.0085L8.76159 1.87329L9.81413 1.22396L10.4215 2.34911L11.3926 4.15089L12 5.27671L10.9487 5.92671L10.7312 6.05996C10.7434 6.2075 10.7495 6.35375 10.7495 6.5C10.7495 6.64625 10.7434 6.7925 10.7312 6.94004L10.9487 7.07329L12 7.72329L11.3926 8.84911L10.4215 10.6509L9.81413 11.776L8.76159 11.1267L8.54414 10.9915C8.31951 11.1574 8.08183 11.3039 7.83353 11.4296V13H6.35294V11.7H6.61893V10.5235C7.31316 10.3324 7.93263 9.94436 8.41976 9.41329L9.36902 10.0009L10.3414 8.19911L9.3903 7.6115C9.48139 7.25725 9.53486 6.88546 9.53486 6.5C9.53486 6.11454 9.48139 5.74275 9.3903 5.3885L10.3414 4.80089L9.36902 2.99911L8.41976 3.58671C7.93263 3.05564 7.31316 2.66761 6.61893 2.4765V1.3H6.35294ZM8.07683 6.5C8.07683 7.67342 7.35064 8.66521 6.35294 8.98869V7.55842C6.66122 7.32266 6.86213 6.93648 6.86213 6.5C6.86213 6.06352 6.66122 5.67734 6.35294 5.44158V4.01131C7.35064 4.33479 8.07683 5.32658 8.07683 6.5ZM0 2.88895C0 1.41575 2.15556 0.200078 4.9412 0.0224115V1.47012C3.90881 1.54571 2.97605 1.78479 2.28537 2.13813C1.66195 2.45703 1.41177 2.75966 1.41177 2.88895C1.41177 3.01823 1.66195 3.32082 2.28537 3.63973C2.97605 3.99307 3.90881 4.23218 4.9412 4.30774V5.75548C3.5408 5.66614 2.29963 5.31449 1.41154 4.79967L1.41131 6.50003H1.41177C1.41177 6.62932 1.66195 6.93194 2.28537 7.25085C2.97605 7.60419 3.90881 7.84327 4.9412 7.91886V9.36657C3.54054 9.27723 2.2992 8.92548 1.41108 8.41049L1.41085 10.0592L1.41184 10.1132C1.44672 10.6084 2.90743 11.379 4.9412 11.5296V12.9777C2.2226 12.8043 0.104129 11.6422 0.00373893 10.2171L0 10.1112V2.88895Z" fill="#6D7498" style="fill:#6D7498;fill:color(display-p3 0.4275 0.4549 0.5961);fill-opacity:1;"/>
</svg>
