<svg width="26" height="26" viewBox="0 0 26 26" fill="none" xmlns="http://www.w3.org/2000/svg">
<path d="M22.7069 13.6535L24.3758 15.1396C24.684 15.3968 24.8899 15.7558 24.9563 16.1517C25.0226 16.5475 24.9451 16.9541 24.7376 17.2977L22.7254 20.7351C22.5693 20.9983 22.3464 21.2154 22.0793 21.3647C21.809 21.5142 21.5056 21.5935 21.1968 21.5954C21.0053 21.5966 20.8147 21.5679 20.6319 21.5105L18.496 20.8053C18.1218 21.0453 17.7329 21.26 17.3293 21.4496L16.8807 23.615C16.7976 24.0134 16.5759 24.3693 16.2548 24.6193C15.9297 24.8738 15.5267 25.0082 15.1139 24.9996H10.9473C10.5345 25.0082 10.1315 24.8738 9.80642 24.6193C9.48608 24.369 9.26497 24.0131 9.18244 23.615L8.73199 21.4496C8.33361 21.2575 7.94708 21.0417 7.57449 20.8034L5.43118 21.5105C5.24842 21.5679 5.05784 21.5966 4.86627 21.5954C4.55808 21.5932 4.25535 21.5139 3.98568 21.3647C3.71881 21.216 3.49592 20.9994 3.33955 20.737L1.25531 17.2977C1.03863 16.951 0.955838 16.5371 1.02245 16.1337C1.08906 15.7303 1.3005 15.3651 1.61714 15.1064L3.28417 13V12.3465L1.6153 10.8604C1.30712 10.6032 1.1012 10.2442 1.03483 9.84833C0.968455 9.45246 1.04601 9.04592 1.25346 8.70229L3.3377 5.26486C3.49382 5.00173 3.71673 4.78455 3.98384 4.63534C4.2535 4.48612 4.55624 4.40679 4.86443 4.40458C5.05427 4.39261 5.24482 4.41004 5.42933 4.45627L7.53019 5.19471C7.90556 4.95472 8.29447 4.73996 8.69692 4.55042L9.14737 2.38495C9.2299 1.98688 9.45101 1.631 9.77134 1.38068C10.0964 1.12619 10.4995 0.991842 10.9122 1.00038H15.0438C15.4566 0.991842 15.8596 1.12619 16.1847 1.38068C16.5077 1.63359 16.7293 1.98989 16.8087 2.38495L17.2591 4.55042C17.6591 4.74119 18.0449 4.95657 18.4166 5.19656L20.5618 4.49135C20.7999 4.4139 21.0514 4.38671 21.3005 4.41149C21.5497 4.43628 21.791 4.5125 22.0091 4.63534C22.2768 4.78672 22.4983 5.00456 22.6552 5.26302L24.7376 8.70229C24.9572 9.04607 25.0442 9.45802 24.9824 9.86124C24.9206 10.2645 24.7142 10.6314 24.4016 10.8936L22.7069 12.3373V13.6535Z" stroke="white" stroke-width="2"/>
<path d="M17.6172 12.998C17.6172 14.2221 17.1309 15.396 16.2654 16.2615C15.3999 17.127 14.226 17.6133 13.002 17.6133C11.7779 17.6133 10.604 17.127 9.73849 16.2615C8.87297 15.396 8.38672 14.2221 8.38672 12.998C8.38672 11.774 8.87297 10.6001 9.73849 9.73458C10.604 8.86906 11.7779 8.38281 13.002 8.38281C14.226 8.38281 15.3999 8.86906 16.2654 9.73458C17.1309 10.6001 17.6172 11.774 17.6172 12.998Z" stroke="white" stroke-width="2"/>
</svg>
