<svg width="66" height="66" viewBox="0 0 66 66" fill="none" xmlns="http://www.w3.org/2000/svg">
<g opacity="0.9">
<path d="M53.657 48.0714C49.2077 49.1398 44.5628 49.088 40.1383 47.9207C35.7138 46.7535 31.6479 44.5071 28.3047 41.3829C24.9614 38.2586 22.4451 34.354 20.9812 30.0186C19.5173 25.6832 19.1514 21.0525 19.9164 16.541C19.8018 16.6553 19.6788 16.7608 19.5485 16.8568C18.6371 17.5501 17.4977 17.8073 15.2191 18.3216L13.152 18.7904C5.14406 20.6036 1.1401 21.5085 0.186314 24.5717C-0.764219 27.6317 1.96368 30.8251 7.42274 37.2086L8.83551 38.859C10.385 40.6722 11.163 41.5804 11.5113 42.7002C11.8596 43.8233 11.7425 45.0342 11.5081 47.4529L11.2932 49.6567C10.4696 58.1757 10.0562 62.4335 12.5498 64.3248C15.0433 66.2161 18.7933 64.4941 26.2869 61.0403L28.2303 60.1483C30.3592 59.1653 31.4237 58.677 32.5533 58.677C33.6828 58.677 34.7473 59.1653 36.8795 60.1483L38.8164 61.0403C46.3132 64.4908 50.0632 66.2161 52.5535 64.3281C55.0503 62.4335 54.6369 58.1757 53.8133 49.6567L53.657 48.0714Z" fill="#1E1E1E" style="fill:#1E1E1E;fill:color(display-p3 0.1176 0.1176 0.1176);fill-opacity:1;"/>
<path d="M23.2858 11.0939L22.2181 13.008C21.0462 15.1109 20.4602 16.1623 19.5488 16.8557C19.679 16.758 19.8016 16.6528 19.9166 16.5399C19.1515 21.0517 19.5173 25.6829 20.9814 30.0186C22.4454 34.3543 24.962 38.2591 28.3057 41.3835C31.6494 44.5078 35.7158 46.7541 40.1407 47.9211C44.5656 49.088 49.2109 49.1393 53.6605 48.0703L53.5954 47.4518C53.3643 45.0331 53.2471 43.8222 53.5954 42.6991C53.9437 41.5793 54.7185 40.6711 56.2712 38.8579L57.684 37.2075C63.1431 30.8272 65.871 27.6338 64.9172 24.5706C63.9666 21.5074 59.9627 20.5992 51.9548 18.7893L49.8844 18.3205C47.609 17.8062 46.4697 17.5491 45.555 16.8557C44.6435 16.1623 44.0575 15.1109 42.8856 13.008L41.8212 11.0939C37.6968 3.69796 35.6362 0 32.5535 0C29.4708 0 27.4102 3.69796 23.2858 11.0939Z" fill="#1E1E1E" style="fill:#1E1E1E;fill:color(display-p3 0.1176 0.1176 0.1176);fill-opacity:1;"/>
</g>
</svg>
