<svg width="36" height="34" viewBox="0 0 36 34" fill="none" xmlns="http://www.w3.org/2000/svg">
<path d="M15.398 1.35189C15.599 0.946081 15.91 0.604412 16.2958 0.36551C16.6815 0.126607 17.1266 0 17.5808 0C18.035 0 18.4801 0.126607 18.8659 0.36551C19.2516 0.604412 19.5626 0.946081 19.7637 1.35189L23.8778 9.65897L33.0771 10.9905C33.5268 11.0551 33.9494 11.2439 34.2971 11.5354C34.6447 11.8269 34.9036 12.2096 35.0443 12.6401C35.185 13.0706 35.202 13.5318 35.0934 13.9714C34.9848 14.4111 34.7548 14.8117 34.4296 15.1278L27.7701 21.5967L29.3417 30.7258C29.4181 31.1719 29.3677 31.6303 29.1964 32.0493C29.025 32.4683 28.7395 32.8312 28.372 33.097C28.0045 33.3628 27.5698 33.5209 27.1169 33.5534C26.664 33.586 26.211 33.4916 25.8091 33.281L17.5808 28.9739L9.35256 33.2864C8.95021 33.4975 8.49659 33.592 8.04309 33.5593C7.58959 33.5266 7.15433 33.3681 6.78664 33.1015C6.41894 32.835 6.1335 32.4712 5.96266 32.0513C5.79181 31.6314 5.74238 31.1723 5.81998 30.7258L7.38881 21.5967L0.734788 15.1305C0.409598 14.8145 0.179613 14.4142 0.0708378 13.9747C-0.0379376 13.5353 -0.0211654 13.0743 0.119258 12.6438C0.259682 12.2134 0.518155 11.8307 0.865455 11.539C1.21275 11.2473 1.63503 11.0582 2.08453 10.9932L11.2811 9.66166L15.398 1.35189Z" fill="url(#paint0_linear_111_6264)"/>
<defs>
<linearGradient id="paint0_linear_111_6264" x1="35.1599" y1="34.3161" x2="-0.897698" y2="0.19516" gradientUnits="userSpaceOnUse">
<stop stop-color="#006755"/>
<stop offset="1" stop-color="#258A8D"/>
</linearGradient>
</defs>
</svg>
