<svg width="18" height="16" viewBox="0 0 18 16" fill="none" xmlns="http://www.w3.org/2000/svg">
<path d="M7.47333 0.644417C7.57092 0.450976 7.72185 0.28811 7.90907 0.17423C8.09629 0.060351 8.31233 0 8.53276 0C8.7532 0 8.96923 0.060351 9.15645 0.17423C9.34367 0.28811 9.49461 0.450976 9.59219 0.644417L11.589 4.60422L16.0538 5.23892C16.2721 5.26973 16.4772 5.35971 16.6459 5.49868C16.8146 5.63764 16.9403 5.82006 17.0086 6.02527C17.0769 6.23049 17.0851 6.45031 17.0324 6.65988C16.9797 6.86945 16.8681 7.06039 16.7102 7.21111L13.4781 10.2947L14.2408 14.6463C14.2779 14.8589 14.2535 15.0775 14.1703 15.2772C14.0871 15.4769 13.9486 15.6499 13.7702 15.7766C13.5919 15.9033 13.3809 15.9787 13.161 15.9942C12.9412 16.0097 12.7214 15.9647 12.5263 15.8643L8.53276 13.8112L4.53922 15.8669C4.34394 15.9675 4.12377 16.0126 3.90367 15.997C3.68357 15.9814 3.47232 15.9058 3.29386 15.7788C3.1154 15.6517 2.97686 15.4783 2.89394 15.2782C2.81102 15.078 2.78703 14.8591 2.82469 14.6463L3.58612 10.2947L0.356625 7.21239C0.198796 7.06176 0.0871744 6.87092 0.0343808 6.66145C-0.0184128 6.45197 -0.0102725 6.23222 0.0578813 6.02704C0.126035 5.82186 0.251484 5.63943 0.420044 5.50038C0.588604 5.36133 0.793552 5.27121 1.01171 5.2402L5.47524 4.6055L7.47333 0.644417Z" fill="url(#paint0_linear_3454_4872)" style=""/>
<defs>
<linearGradient id="paint0_linear_3454_4872" x1="17.0647" y1="16.3577" x2="-0.13749" y2="-0.216474" gradientUnits="userSpaceOnUse">
<stop stop-color="#FF6F47" style="stop-color:#FF6F47;stop-color:color(display-p3 1.0000 0.4353 0.2784);stop-opacity:1;"/>
<stop offset="1" stop-color="#FFCD0F" style="stop-color:#FFCD0F;stop-color:color(display-p3 1.0000 0.8039 0.0588);stop-opacity:1;"/>
</linearGradient>
</defs>
</svg>
