<svg width="54" height="54" viewBox="0 0 54 54" fill="none" xmlns="http://www.w3.org/2000/svg">
<rect width="53.6928" height="53.6928" rx="6.78261" fill="#258A8D"/>
<path d="M24.9473 15.3143C25.0902 15.0241 25.3113 14.7798 25.5856 14.609C25.8598 14.4382 26.1763 14.3477 26.4992 14.3477C26.8221 14.3477 27.1385 14.4382 27.4128 14.609C27.687 14.7798 27.9081 15.0241 28.0511 15.3143L30.976 21.254L37.5163 22.206C37.8361 22.2522 38.1365 22.3872 38.3837 22.5957C38.6308 22.8041 38.8148 23.0777 38.9149 23.3856C39.0149 23.6934 39.027 24.0231 38.9498 24.3375C38.8726 24.6518 38.7091 24.9382 38.4778 25.1643L33.7433 29.7896L34.8606 36.3172C34.9149 36.6361 34.8791 36.9639 34.7573 37.2635C34.6355 37.5631 34.4325 37.8225 34.1712 38.0126C33.91 38.2026 33.6009 38.3157 33.2789 38.3389C32.9569 38.3622 32.6348 38.2947 32.3491 38.1442L26.4992 35.0645L20.6492 38.148C20.3632 38.2989 20.0407 38.3665 19.7183 38.3431C19.3958 38.3198 19.0864 38.2064 18.825 38.0158C18.5636 37.8252 18.3606 37.5651 18.2392 37.2649C18.1177 36.9647 18.0826 36.6364 18.1377 36.3172L19.2531 29.7896L14.5224 25.1662C14.2912 24.9403 14.1277 24.654 14.0504 24.3398C13.973 24.0256 13.985 23.696 14.0848 23.3882C14.1846 23.0804 14.3684 22.8068 14.6153 22.5982C14.8622 22.3897 15.1624 22.2545 15.482 22.208L22.0204 21.2559L24.9473 15.3143Z" fill="white"/>
</svg>
