<svg width="17" height="16" viewBox="0 0 17 16" fill="none" xmlns="http://www.w3.org/2000/svg">
<path d="M0 7.49158V6.5872C0 5.94317 6.08201e-08 5.41952 0.0307319 4.98984C0.0624241 4.54548 0.12965 4.15201 0.289071 3.77225C0.543787 3.1635 0.955258 2.63626 1.47993 2.24634C1.80646 2.00361 2.16755 1.84798 2.58628 1.71683C2.98963 1.58959 3.48902 1.47214 4.10558 1.32728L7.43038 0.54426C8.36578 0.325015 9.11487 0.148836 9.72374 0.0617255C10.3451 -0.026364 10.9012 -0.0361517 11.4313 0.139048C12.2615 0.412262 12.9662 0.983345 13.4144 1.74619C13.546 1.97131 13.6411 2.20817 13.7112 2.4607C14.5534 2.8432 15.2195 3.54032 15.5724 4.40845C15.7241 4.78234 15.7875 5.17777 15.8173 5.62409C15.8461 6.04692 15.8461 6.56371 15.8461 7.20089C16.1339 7.33961 16.3771 7.55879 16.5475 7.83292C16.7178 8.10704 16.8082 8.42484 16.8082 8.74931C16.8082 9.07378 16.7178 9.39157 16.5475 9.6657C16.3771 9.93982 16.1339 10.159 15.8461 10.2977C15.8461 10.9339 15.8461 11.4517 15.8173 11.8735C15.7875 12.3208 15.7241 12.7153 15.5724 13.0902C15.3914 13.5356 15.1261 13.9404 14.7916 14.2813C14.4571 14.6222 14.0599 14.8926 13.6228 15.0771C13.256 15.2317 12.868 15.2963 12.4301 15.3267C12.0027 15.356 11.4793 15.356 10.8301 15.356H5.29836C4.51854 15.356 3.88854 15.356 3.37954 15.3139C2.85422 15.2699 2.39324 15.1769 1.96684 14.9557C1.28874 14.604 0.737375 14.0424 0.391831 13.3515C0.174787 12.9169 0.0845125 12.4471 0.0412959 11.9127C-1.78883e-08 11.393 0 10.7509 0 9.95515V7.49158ZM7.72137 1.98403L7.04431 2.14259H10.8416C11.2498 2.14259 11.607 2.14259 11.923 2.15042C11.6695 1.86595 11.3473 1.65404 10.9885 1.53576C10.76 1.46039 10.4555 1.43984 9.92254 1.51618C9.38473 1.59253 8.69807 1.75402 7.72041 1.98403M10.5458 3.61075H5.33005C4.51182 3.61075 3.9404 3.61075 3.49574 3.64795C3.0607 3.68416 2.81004 3.75268 2.62085 3.85055C2.18903 4.07414 1.84389 4.43969 1.64127 4.88805C1.56348 5.07402 1.50874 5.31773 1.47801 5.7063L1.46552 5.88248C1.44055 6.30825 1.44055 6.84462 1.44055 7.57478V9.92383C1.44055 10.7587 1.44055 11.3401 1.47705 11.7933C1.51258 12.2367 1.57981 12.4921 1.67584 12.6859C1.88328 13.0999 2.21365 13.4366 2.62085 13.6481C2.81004 13.7459 3.0607 13.8145 3.49671 13.8507C3.9404 13.8869 4.51182 13.8879 5.33005 13.8879H10.8042C11.486 13.8879 11.9604 13.8879 12.3311 13.8614C12.6961 13.836 12.9093 13.789 13.0716 13.7205C13.3338 13.6098 13.5721 13.4476 13.7728 13.243C13.9735 13.0385 14.1327 12.7956 14.2413 12.5283C14.3085 12.3629 14.3546 12.1466 14.3796 11.7747C14.4017 11.4419 14.4055 11.0279 14.4055 10.4622H13.2051C12.7593 10.4622 12.3319 10.2817 12.0167 9.96048C11.7015 9.63925 11.5244 9.20358 11.5244 8.74931C11.5244 8.29503 11.7015 7.85936 12.0167 7.53814C12.3319 7.21692 12.7593 7.03646 13.2051 7.03646H14.4055C14.4055 6.47073 14.4017 6.05768 14.3796 5.7249C14.3546 5.35297 14.3085 5.13568 14.2413 4.97027C14.1315 4.7001 13.97 4.45494 13.7662 4.24908C13.5624 4.04322 13.3204 3.88079 13.0543 3.77127L12.9189 3.73604C12.4646 3.6176 11.8193 3.61075 10.5468 3.61075M12.965 8.74931C12.965 8.88438 13.0725 8.994 13.2051 8.994H15.1258C15.1895 8.994 15.2506 8.96822 15.2956 8.92233C15.3406 8.87644 15.3659 8.8142 15.3659 8.74931C15.3659 8.68441 15.3406 8.62217 15.2956 8.57628C15.2506 8.53039 15.1895 8.50461 15.1258 8.50461H13.2051C13.1414 8.50461 13.0803 8.53039 13.0353 8.57628C12.9903 8.62217 12.965 8.68441 12.965 8.74931Z" fill="#258A8D" style="fill:#258A8D;fill:color(display-p3 0.1451 0.5412 0.5529);fill-opacity:1;"/>
</svg>
