<svg width="25" height="22" viewBox="0 0 25 22" fill="none" xmlns="http://www.w3.org/2000/svg">
<path fill-rule="evenodd" clip-rule="evenodd" d="M23.0122 6.02846C22.9439 6.02444 22.8712 6.02284 22.7941 6.02364H19.752C17.2604 6.02364 15.1292 7.98505 15.1292 10.5416C15.1292 13.0982 17.2616 15.0596 19.752 15.0596H22.7941C22.8712 15.0604 22.9443 15.0588 23.0134 15.0548C23.5254 15.024 24.0088 14.808 24.3734 14.4471C24.7381 14.0862 24.9591 13.6051 24.9953 13.0934C25.0001 13.0211 25.0001 12.9428 25.0001 12.8705V8.21276C25.0001 8.14047 25.0001 8.06216 24.9953 7.98987C24.9591 7.47815 24.7381 6.99704 24.3734 6.63618C24.0088 6.27532 23.5242 6.05933 23.0122 6.02846ZM19.4857 11.7464C20.1267 11.7464 20.6459 11.2067 20.6459 10.5416C20.6459 9.87659 20.1267 9.33684 19.4857 9.33684C18.8436 9.33684 18.3243 9.87659 18.3243 10.5416C18.3243 11.2067 18.8436 11.7464 19.4857 11.7464Z" fill="white"/>
<path fill-rule="evenodd" clip-rule="evenodd" d="M22.7924 16.8672C22.8341 16.8655 22.8755 16.8737 22.9134 16.8911C22.9513 16.9084 22.9846 16.9345 23.0105 16.9671C23.0365 16.9997 23.0544 17.038 23.0627 17.0789C23.0711 17.1197 23.0697 17.1619 23.0587 17.2021C22.8177 18.06 22.4334 18.7925 21.8177 19.4069C20.9153 20.3105 19.772 20.7093 18.36 20.8997C16.9865 21.084 15.2335 21.084 13.0191 21.084H10.4745C8.26011 21.084 6.50592 21.084 5.13366 20.8997C3.72163 20.7093 2.57827 20.3093 1.67588 19.4081C0.774687 18.5057 0.374693 17.3624 0.184335 15.9504C1.43623e-07 14.5769 0 12.8239 0 10.6095V10.4745C0 8.26011 1.43623e-07 6.50592 0.184335 5.13245C0.374693 3.72042 0.774687 2.57707 1.67588 1.67467C2.57827 0.773482 3.72163 0.373488 5.13366 0.18313C6.50713 -5.38588e-08 8.26011 0 10.4745 0H13.0191C15.2335 0 16.9877 1.43623e-07 18.36 0.184335C19.772 0.374693 20.9153 0.774687 21.8177 1.67588C22.4334 2.29274 22.8177 3.02405 23.0587 3.88187C23.0697 3.92207 23.0711 3.9643 23.0627 4.00514C23.0544 4.04598 23.0365 4.08427 23.0105 4.1169C22.9846 4.14953 22.9513 4.17558 22.9134 4.19294C22.8755 4.2103 22.8341 4.21848 22.7924 4.2168H19.7515C16.3335 4.2168 13.3215 6.91556 13.3215 10.542C13.3215 14.1685 16.3335 16.8672 19.7515 16.8672H22.7924ZM4.518 4.8192C4.27835 4.8192 4.04852 4.9144 3.87906 5.08386C3.7096 5.25332 3.6144 5.48315 3.6144 5.7228C3.6144 5.96245 3.7096 6.19229 3.87906 6.36174C4.04852 6.5312 4.27835 6.6264 4.518 6.6264H9.33721C9.57686 6.6264 9.80669 6.5312 9.97615 6.36174C10.1456 6.19229 10.2408 5.96245 10.2408 5.7228C10.2408 5.48315 10.1456 5.25332 9.97615 5.08386C9.80669 4.9144 9.57686 4.8192 9.33721 4.8192H4.518Z" fill="white"/>
</svg>
