<svg width="23" height="23" viewBox="0 0 23 23" fill="none" xmlns="http://www.w3.org/2000/svg">
<path d="M11.5 15.5C13.7091 15.5 15.5 13.7091 15.5 11.5C15.5 9.29086 13.7091 7.5 11.5 7.5C9.29086 7.5 7.5 9.29086 7.5 11.5C7.5 13.7091 9.29086 15.5 11.5 15.5Z" stroke="#258A8D" stroke-width="3" stroke-linecap="round" stroke-linejoin="round"/>
<path d="M15.5 7.50001V12.5C15.5 13.2957 15.8161 14.0587 16.3787 14.6213C16.9413 15.1839 17.7044 15.5 18.5 15.5C19.2957 15.5 20.0587 15.1839 20.6213 14.6213C21.1839 14.0587 21.5 13.2957 21.5 12.5V11.5C21.5 9.24731 20.7394 7.06061 19.3414 5.29418C17.9434 3.52775 15.99 2.28508 13.7975 1.76752C11.6051 1.24996 9.30215 1.48782 7.26178 2.44256C5.22141 3.39731 3.56318 5.013 2.55574 7.02787C1.5483 9.04274 1.25069 11.3387 1.71111 13.5439C2.17154 15.749 3.36303 17.7341 5.09254 19.1775C6.82205 20.6209 8.98825 21.4381 11.2402 21.4966C13.4921 21.5552 15.6979 20.8516 17.5 19.5" stroke="#258A8D" stroke-width="3" stroke-linecap="round" stroke-linejoin="round"/>
</svg>
