<svg width="23" height="23" viewBox="0 0 23 23" fill="none" xmlns="http://www.w3.org/2000/svg">
<path d="M16.5 1.5H6.5C3.73858 1.5 1.5 3.73858 1.5 6.5V16.5C1.5 19.2614 3.73858 21.5 6.5 21.5H16.5C19.2614 21.5 21.5 19.2614 21.5 16.5V6.5C21.5 3.73858 19.2614 1.5 16.5 1.5Z" stroke="#258A8D" stroke-width="3" stroke-linecap="round" stroke-linejoin="round"/>
<path d="M15.5 10.8703C15.6234 11.7025 15.4812 12.5525 15.0937 13.2993C14.7062 14.0461 14.0931 14.6517 13.3416 15.03C12.5901 15.4082 11.7384 15.5399 10.9077 15.4062C10.0771 15.2726 9.30971 14.8804 8.71479 14.2855C8.11987 13.6905 7.72768 12.9232 7.59402 12.0925C7.46035 11.2619 7.59202 10.4102 7.97028 9.65868C8.34854 8.90716 8.95414 8.29404 9.70094 7.90654C10.4477 7.51904 11.2977 7.37689 12.13 7.5003C12.9789 7.62619 13.7648 8.02176 14.3716 8.62861C14.9785 9.23545 15.3741 10.0214 15.5 10.8703Z" stroke="#258A8D" stroke-width="3" stroke-linecap="round" stroke-linejoin="round"/>
<path d="M17 6H17.01" stroke="#258A8D" stroke-width="3" stroke-linecap="round" stroke-linejoin="round"/>
</svg>
