<svg width="23" height="23" viewBox="0 0 23 23" fill="none" xmlns="http://www.w3.org/2000/svg">
<path d="M14.0358 21.1885C14.0738 21.2832 14.1398 21.364 14.2251 21.42C14.3103 21.4761 14.4107 21.5048 14.5126 21.5021C14.6146 21.4995 14.7134 21.4658 14.7956 21.4054C14.8779 21.3451 14.9397 21.261 14.9728 21.1645L21.4728 2.1645C21.5048 2.07589 21.5109 1.98 21.4904 1.88805C21.4699 1.7961 21.4236 1.71189 21.357 1.64528C21.2904 1.57866 21.2062 1.53239 21.1143 1.51189C21.0223 1.49139 20.9264 1.49749 20.8378 1.5295L1.83781 8.0295C1.7413 8.06259 1.65723 8.12442 1.59688 8.20667C1.53652 8.28892 1.50278 8.38767 1.50016 8.48966C1.49755 8.59164 1.5262 8.69199 1.58226 8.77722C1.63833 8.86246 1.71912 8.92851 1.81381 8.9665L9.74381 12.1465C9.99449 12.2469 10.2223 12.397 10.4134 12.5877C10.6045 12.7785 10.755 13.006 10.8558 13.2565L14.0358 21.1885Z" stroke="#258A8D" stroke-width="3" stroke-linecap="round" stroke-linejoin="round"/>
<path d="M21.3538 1.64844L10.4138 12.5874" stroke="#258A8D" stroke-width="3" stroke-linecap="round" stroke-linejoin="round"/>
</svg>
